<svg width="27" height="30" viewBox="0 0 27 30" fill="none" xmlns="http://www.w3.org/2000/svg">
<path d="M13.6224 18.7808C15.9744 18.7808 17.881 16.8741 17.881 14.5222C17.881 12.1702 15.9744 10.2635 13.6224 10.2635C11.2704 10.2635 9.36377 12.1702 9.36377 14.5222C9.36377 16.8741 11.2704 18.7808 13.6224 18.7808Z" stroke="#3B436B" stroke-width="1.34483"/>
<path d="M13.5507 16.0912C14.4172 16.0912 15.1196 15.3887 15.1196 14.5222C15.1196 13.6557 14.4172 12.9532 13.5507 12.9532C12.6841 12.9532 11.9817 13.6557 11.9817 14.5222C11.9817 15.3887 12.6841 16.0912 13.5507 16.0912Z" stroke="#3B436B" stroke-width="1.34483"/>
<path d="M17.3992 25.6457C10.9049 27.4319 4.35841 23.9696 2.77722 17.9123C1.87785 14.4669 2.77863 10.9242 4.91782 8.18079" stroke="#2D3660" stroke-width="1.34483" stroke-linecap="round" stroke-linejoin="round"/>
<path d="M9.58716 3.8598C16.0814 2.07361 22.6279 5.53597 24.2091 11.5932C25.1084 15.0386 24.2077 18.5813 22.0685 21.3248" stroke="#2D3660" stroke-width="1.34483" stroke-linecap="round" stroke-linejoin="round"/>
<path d="M1.41211 9.01927L4.86991 8.06824L5.77571 11.5382" stroke="#2D3660" stroke-width="1.34483" stroke-linecap="round" stroke-linejoin="round"/>
<path d="M25.5743 20.4863L22.1166 21.4373L21.2107 17.9674" stroke="#2D3660" stroke-width="1.34483" stroke-linecap="round" stroke-linejoin="round"/>
</svg>
