<svg width="17" height="14" viewBox="0 0 17 14" fill="none" xmlns="http://www.w3.org/2000/svg">
<path d="M6.53339 2.3894C6.40883 2.03805 6.28311 1.6838 6.28083 1.67916C6.22083 1.54291 6.08197 1.4571 5.93568 1.47217C5.84311 1.47971 3.65283 1.67104 2.24939 2.81614C1.51568 3.50377 0.0505371 7.52407 0.0505371 11C0.0505371 11.0614 0.0659657 11.1211 0.0962514 11.1745C1.10825 12.9777 3.86711 13.4496 4.49568 13.4699C4.49968 13.4705 4.50311 13.4705 4.50654 13.4705C4.61739 13.4705 4.72139 13.4165 4.78768 13.3255L5.46768 12.3909C4.34425 12.2175 4.14139 11.9914 4.09397 11.9561C3.84025 11.7665 3.65283 11.5009 3.88025 11.1657C4.05511 10.9054 4.42197 10.8197 4.70311 10.9663C4.99111 11.1025 5.76197 11.5409 8.05054 11.5293C10.3231 11.5224 11.3209 11.0393 11.3351 11.0289C11.7169 10.8545 12.0145 10.9263 12.2002 11.1849C12.4214 11.5369 12.2637 11.7751 12.0111 11.9641C11.9637 11.9995 11.8489 12.0987 10.642 12.3885L11.3134 13.3249C11.3791 13.4165 11.4837 13.4699 11.5945 13.4699C11.5985 13.4699 11.602 13.4699 11.6054 13.4693C12.2345 13.449 14.9934 12.977 16.0049 11.1739C16.0351 11.1205 16.0505 11.0609 16.0505 10.9993C16.0505 7.52408 14.5854 3.50377 13.8334 2.80106C12.4482 1.67162 10.258 1.48029 10.1654 1.47217C10.0191 1.45941 9.88022 1.54349 9.82022 1.67916C9.81798 1.6838 9.69566 2.04385 9.57742 2.39115C9.57742 2.39115 8.64542 2.25257 8.05054 2.25257C7.45568 2.25257 6.53339 2.3894 6.53339 2.3894ZM5.76483 9.7899C5.13339 9.7899 4.62197 9.01705 4.62197 8.06271C4.62197 7.10836 5.13339 6.3355 5.76483 6.3355C6.39854 6.23983 6.89397 7.10836 6.90768 8.06271C6.90768 9.01705 6.39625 9.7899 5.76483 9.7899ZM10.3362 9.7899C9.70486 9.7899 9.19342 9.01183 9.19342 8.05227C9.19342 7.09271 9.70486 6.31462 10.3362 6.31462C10.9677 6.31462 11.4791 7.09271 11.4791 8.05227C11.4791 9.01183 10.9677 9.7899 10.3362 9.7899Z" fill="#3B436B"/>
</svg>
