<svg width="26" height="19" viewBox="0 0 26 19" fill="none" xmlns="http://www.w3.org/2000/svg">
<g clip-path="url(#clip0_1_1256)">
<path d="M24.5777 16.4242C24.5777 17.0521 24.0674 17.5605 23.4395 17.5605H1.28645C0.65854 17.5605 0.150146 17.0521 0.150146 16.4242V1.60676C0.150146 0.978853 0.65854 0.470459 1.28645 0.470459H23.4395C24.0674 0.470459 24.5777 0.978853 24.5777 1.60676V16.4242Z" fill="#E6E7E8"/>
<path d="M0.150146 16.4239C0.150146 17.0518 0.65854 17.5602 1.28645 17.5602H23.4395C24.0674 17.5602 24.5777 17.0518 24.5777 16.4239V16.238H0.150146V16.4239Z" fill="#DA2128"/>
<path d="M24.5777 13.6052H0.150146V14.9274H24.5777V13.6052Z" fill="#DA2128"/>
<path d="M24.5777 10.9744H0.150146V12.2947H24.5777V10.9744Z" fill="#DA2128"/>
<path d="M24.5777 8.34106H0.150146V9.66326H24.5777V8.34106Z" fill="#DA2128"/>
<path d="M24.5777 5.71021H0.150146V7.03241H24.5777V5.71021Z" fill="#DA2128"/>
<path d="M24.5777 3.0769H0.150146V4.3991H24.5777V3.0769Z" fill="#DA2128"/>
<path d="M24.5777 1.60676C24.5777 0.978853 24.0674 0.470459 23.4395 0.470459H1.28645C0.65854 0.470459 0.150146 0.978853 0.150146 1.60676V1.79266H24.5777V1.60676Z" fill="#DA2128"/>
<path d="M12.9131 0.470459H1.28455C0.65854 0.470459 0.150146 0.98075 0.150146 1.60676V9.66897H12.9131V0.470459Z" fill="#006BB5"/>
<path d="M1.00929 0.67749L1.1345 1.0531H1.51579L1.20658 1.28453L1.3223 1.66393L1.00929 1.43249L0.700085 1.66393L0.819595 1.28453L0.506592 1.0531H0.889784L1.00929 0.67749Z" fill="#EDEDEE"/>
<path d="M3.10908 0.67749L3.23048 1.0531H3.61747L3.30826 1.28453L3.42777 1.66393L3.10908 1.43249L2.80556 1.66393L2.92507 1.28453L2.61206 1.0531H2.99526L3.10908 0.67749Z" fill="#EDEDEE"/>
<path d="M5.31382 0.67749L5.42953 1.0531H5.81083L5.50162 1.28453L5.62113 1.66393L5.31382 1.43249L4.99892 1.66393L5.11463 1.28453L4.80542 1.0531H5.19241L5.31382 0.67749Z" fill="#EDEDEE"/>
<path d="M7.50637 0.67749L7.62588 1.0531H8.00907L7.69607 1.28453L7.81558 1.66393L7.50637 1.43249L7.19147 1.66393L7.30718 1.28453L7.00366 1.0531H7.38686L7.50637 0.67749Z" fill="#EDEDEE"/>
<path d="M9.69956 0.67749L9.81528 1.0531H10.2079L9.89305 1.28453L10.0088 1.66393L9.69956 1.43249L9.38466 1.66393L9.50607 1.28453L9.19116 1.0531H9.58005L9.69956 0.67749Z" fill="#EDEDEE"/>
<path d="M2.02073 1.70923L2.13645 2.08673H2.52343L2.21042 2.32006L2.32994 2.69946L2.02073 2.46613L1.70582 2.69946L1.82723 2.32006L1.50854 2.08673H1.90122L2.02073 1.70923Z" fill="#EDEDEE"/>
<path d="M4.1205 1.70923L4.24191 2.08673H4.6251L4.31589 2.32006L4.4354 2.69946L4.1205 2.46613L3.8075 2.69946L3.92701 2.32006L3.61401 2.08673H4.00099L4.1205 1.70923Z" fill="#EDEDEE"/>
<path d="M6.31576 1.70923L6.43527 2.08673H6.82226L6.50925 2.32006L6.62876 2.69946L6.31576 2.46613L6.00086 2.69946L6.12606 2.32006L5.80737 2.08673H6.19435L6.31576 1.70923Z" fill="#EDEDEE"/>
<path d="M8.50832 1.70923L8.62782 2.08673H9.01671L8.70181 2.32006L8.82131 2.69946L8.50832 2.46613L8.19911 2.69946L8.31861 2.32006L8.00562 2.08673H8.38881L8.50832 1.70923Z" fill="#EDEDEE"/>
<path d="M10.7065 1.70923L10.8203 2.08673H11.2092L10.9 2.32006L11.0157 2.69946L10.7065 2.46613L10.3916 2.69946L10.5111 2.32006L10.2019 2.08673H10.5851L10.7065 1.70923Z" fill="#EDEDEE"/>
<path d="M2.02073 3.59302L2.13645 3.96673H2.52343L2.21042 4.20195L2.32994 4.57945L2.02073 4.34802L1.70582 4.57945L1.82723 4.20195L1.50854 3.96673H1.90122L2.02073 3.59302Z" fill="#EDEDEE"/>
<path d="M4.1205 3.59302L4.24191 3.96673H4.6251L4.31589 4.20195L4.4354 4.57945L4.1205 4.34802L3.8075 4.57945L3.92701 4.20195L3.61401 3.96673H4.00099L4.1205 3.59302Z" fill="#EDEDEE"/>
<path d="M6.31576 3.59302L6.43527 3.96673H6.82226L6.50925 4.20195L6.62876 4.57945L6.31576 4.34802L6.00086 4.57945L6.12606 4.20195L5.80737 3.96673H6.19435L6.31576 3.59302Z" fill="#EDEDEE"/>
<path d="M8.50832 3.59302L8.62782 3.96673H9.01671L8.70181 4.20195L8.82131 4.57945L8.50832 4.34802L8.19911 4.57945L8.31861 4.20195L8.00562 3.96673H8.38881L8.50832 3.59302Z" fill="#EDEDEE"/>
<path d="M10.7065 3.59302L10.8203 3.96673H11.2092L10.9 4.20195L11.0157 4.57945L10.7065 4.34802L10.3916 4.57945L10.5111 4.20195L10.2019 3.96673H10.5851L10.7065 3.59302Z" fill="#EDEDEE"/>
<path d="M2.02073 5.47144L2.13645 5.84894H2.52343L2.21042 6.08416L2.32994 6.45787L2.02073 6.22265L1.70582 6.45787L1.82723 6.08416L1.50854 5.84894H1.90122L2.02073 5.47144Z" fill="#EDEDEE"/>
<path d="M4.1205 5.47144L4.24191 5.84894H4.6251L4.31589 6.08416L4.4354 6.45787L4.1205 6.22265L3.8075 6.45787L3.92701 6.08416L3.61401 5.84894H4.00099L4.1205 5.47144Z" fill="#EDEDEE"/>
<path d="M6.31576 5.47144L6.43527 5.84894H6.82226L6.50925 6.08416L6.62876 6.45787L6.31576 6.22265L6.00086 6.45787L6.12606 6.08416L5.80737 5.84894H6.19435L6.31576 5.47144Z" fill="#EDEDEE"/>
<path d="M8.50832 5.47144L8.62782 5.84894H9.01671L8.70181 6.08416L8.82131 6.45787L8.50832 6.22265L8.19911 6.45787L8.31861 6.08416L8.00562 5.84894H8.38881L8.50832 5.47144Z" fill="#EDEDEE"/>
<path d="M10.7065 5.47144L10.8203 5.84894H11.2092L10.9 6.08416L11.0157 6.45787L10.7065 6.22265L10.3916 6.45787L10.5111 6.08416L10.2019 5.84894H10.5851L10.7065 5.47144Z" fill="#EDEDEE"/>
<path d="M2.02073 7.35132L2.13645 7.72692H2.52343L2.21042 7.96215L2.32994 8.33965L2.02073 8.10632L1.70582 8.33965L1.82723 7.96215L1.50854 7.72692H1.90122L2.02073 7.35132Z" fill="#EDEDEE"/>
<path d="M4.1205 7.35132L4.24191 7.72692H4.6251L4.31589 7.96215L4.4354 8.33965L4.1205 8.10632L3.8075 8.33965L3.92701 7.96215L3.61401 7.72692H4.00099L4.1205 7.35132Z" fill="#EDEDEE"/>
<path d="M6.31576 7.35132L6.43527 7.72692H6.82226L6.50925 7.96215L6.62876 8.33965L6.31576 8.10632L6.00086 8.33965L6.12606 7.96215L5.80737 7.72692H6.19435L6.31576 7.35132Z" fill="#EDEDEE"/>
<path d="M8.50832 7.35132L8.62782 7.72692H9.01671L8.70181 7.96215L8.82131 8.33965L8.50832 8.10632L8.19911 8.33965L8.31861 7.96215L8.00562 7.72692H8.38881L8.50832 7.35132Z" fill="#EDEDEE"/>
<path d="M10.7065 7.35132L10.8203 7.72692H11.2092L10.9 7.96215L11.0157 8.33965L10.7065 8.10632L10.3916 8.33965L10.5111 7.96215L10.2019 7.72692H10.5851L10.7065 7.35132Z" fill="#EDEDEE"/>
<path d="M11.8921 0.67749L12.0116 1.0531H12.3948L12.0856 1.28453L12.207 1.66393L11.8921 1.43249L11.5791 1.66393L11.6986 1.28453L11.3894 1.0531H11.7726L11.8921 0.67749Z" fill="#EDEDEE"/>
<path d="M1.00929 2.55737L1.1345 2.93677H1.51579L1.20658 3.16631L1.3223 3.54571L1.00929 3.31238L0.700085 3.54571L0.819595 3.16631L0.506592 2.93677H0.889784L1.00929 2.55737Z" fill="#EDEDEE"/>
<path d="M3.10908 2.55737L3.23048 2.93677H3.61747L3.30826 3.16631L3.42777 3.54571L3.10908 3.31238L2.80556 3.54571L2.92507 3.16631L2.61206 2.93677H2.99526L3.10908 2.55737Z" fill="#EDEDEE"/>
<path d="M5.31382 2.55737L5.42953 2.93677H5.81083L5.50162 3.16631L5.62113 3.54571L5.31382 3.31238L4.99892 3.54571L5.11463 3.16631L4.80542 2.93677H5.19241L5.31382 2.55737Z" fill="#EDEDEE"/>
<path d="M7.50637 2.55737L7.62588 2.93677H8.00907L7.69607 3.16631L7.81558 3.54571L7.50637 3.31238L7.19147 3.54571L7.30718 3.16631L7.00366 2.93677H7.38686L7.50637 2.55737Z" fill="#EDEDEE"/>
<path d="M9.69956 2.55737L9.81528 2.93677H10.2079L9.89305 3.16631L10.0088 3.54571L9.69956 3.31238L9.38466 3.54571L9.50607 3.16631L9.19116 2.93677H9.58005L9.69956 2.55737Z" fill="#EDEDEE"/>
<path d="M11.8921 2.55737L12.0116 2.93677H12.3948L12.0856 3.16631L12.207 3.54571L11.8921 3.31238L11.5791 3.54571L11.6986 3.16631L11.3894 2.93677H11.7726L11.8921 2.55737Z" fill="#EDEDEE"/>
<path d="M1.00929 4.43726L1.1345 4.81286H1.51579L1.20658 5.04809L1.3223 5.42369L1.00929 5.19036L0.700085 5.42369L0.819595 5.04809L0.506592 4.81286H0.889784L1.00929 4.43726Z" fill="#EDEDEE"/>
<path d="M3.10908 4.43726L3.23048 4.81286H3.61747L3.30826 5.04809L3.42777 5.42369L3.10908 5.19036L2.80556 5.42369L2.92507 5.04809L2.61206 4.81286H2.99526L3.10908 4.43726Z" fill="#EDEDEE"/>
<path d="M5.31382 4.43726L5.42953 4.81286H5.81083L5.50162 5.04809L5.62113 5.42369L5.31382 5.19036L4.99892 5.42369L5.11463 5.04809L4.80542 4.81286H5.19241L5.31382 4.43726Z" fill="#EDEDEE"/>
<path d="M7.50637 4.43726L7.62588 4.81286H8.00907L7.69607 5.04809L7.81558 5.42369L7.50637 5.19036L7.19147 5.42369L7.30718 5.04809L7.00366 4.81286H7.38686L7.50637 4.43726Z" fill="#EDEDEE"/>
<path d="M9.69956 4.43726L9.81528 4.81286H10.2079L9.89305 5.04809L10.0088 5.42369L9.69956 5.19036L9.38466 5.42369L9.50607 5.04809L9.19116 4.81286H9.58005L9.69956 4.43726Z" fill="#EDEDEE"/>
<path d="M11.8921 4.43726L12.0116 4.81286H12.3948L12.0856 5.04809L12.207 5.42369L11.8921 5.19036L11.5791 5.42369L11.6986 5.04809L11.3894 4.81286H11.7726L11.8921 4.43726Z" fill="#EDEDEE"/>
<path d="M1.00929 6.31909L1.1345 6.69659H1.51579L1.20658 6.92613L1.3223 7.30363L1.00929 7.0722L0.700085 7.30363L0.819595 6.92613L0.506592 6.69659H0.889784L1.00929 6.31909Z" fill="#EDEDEE"/>
<path d="M3.10908 6.31909L3.23048 6.69659H3.61747L3.30826 6.92613L3.42777 7.30363L3.10908 7.0722L2.80556 7.30363L2.92507 6.92613L2.61206 6.69659H2.99526L3.10908 6.31909Z" fill="#EDEDEE"/>
<path d="M5.31382 6.31909L5.42953 6.69659H5.81083L5.50162 6.92613L5.62113 7.30363L5.31382 7.0722L4.99892 7.30363L5.11463 6.92613L4.80542 6.69659H5.19241L5.31382 6.31909Z" fill="#EDEDEE"/>
<path d="M7.50637 6.31909L7.62588 6.69659H8.00907L7.69607 6.92613L7.81558 7.30363L7.50637 7.0722L7.19147 7.30363L7.30718 6.92613L7.00366 6.69659H7.38686L7.50637 6.31909Z" fill="#EDEDEE"/>
<path d="M9.69956 6.31909L9.81528 6.69659H10.2079L9.89305 6.92613L10.0088 7.30363L9.69956 7.0722L9.38466 7.30363L9.50607 6.92613L9.19116 6.69659H9.58005L9.69956 6.31909Z" fill="#EDEDEE"/>
<path d="M11.8921 6.31909L12.0116 6.69659H12.3948L12.0856 6.92613L12.207 7.30363L11.8921 7.0722L11.5791 7.30363L11.6986 6.92613L11.3894 6.69659H11.7726L11.8921 6.31909Z" fill="#EDEDEE"/>
<path d="M1.00929 8.19507L1.1345 8.57636H1.51579L1.20658 8.8078L1.3223 9.1834L1.00929 8.95197L0.700085 9.1834L0.819595 8.8078L0.506592 8.57636H0.889784L1.00929 8.19507Z" fill="#EDEDEE"/>
<path d="M3.10908 8.19507L3.23048 8.57636H3.61747L3.30826 8.8078L3.42777 9.1834L3.10908 8.95197L2.80556 9.1834L2.92507 8.8078L2.61206 8.57636H2.99526L3.10908 8.19507Z" fill="#EDEDEE"/>
<path d="M5.31382 8.19507L5.42953 8.57636H5.81083L5.50162 8.8078L5.62113 9.1834L5.31382 8.95197L4.99892 9.1834L5.11463 8.8078L4.80542 8.57636H5.19241L5.31382 8.19507Z" fill="#EDEDEE"/>
<path d="M7.50637 8.19507L7.62588 8.57636H8.00907L7.69607 8.8078L7.81558 9.1834L7.50637 8.95197L7.19147 9.1834L7.30718 8.8078L7.00366 8.57636H7.38686L7.50637 8.19507Z" fill="#EDEDEE"/>
<path d="M9.69956 8.19507L9.81528 8.57636H10.2079L9.89305 8.8078L10.0088 9.1834L9.69956 8.95197L9.38466 9.1834L9.50607 8.8078L9.19116 8.57636H9.58005L9.69956 8.19507Z" fill="#EDEDEE"/>
<path d="M11.8921 8.19507L12.0116 8.57636H12.3948L12.0856 8.8078L12.207 9.1834L11.8921 8.95197L11.5791 9.1834L11.6986 8.8078L11.3894 8.57636H11.7726L11.8921 8.19507Z" fill="#EDEDEE"/>
</g>
<defs>
<clipPath id="clip0_1_1256">
<rect width="25" height="18" fill="white" transform="translate(0.0505371 0.470459)"/>
</clipPath>
</defs>
</svg>
