<svg width="21" height="19" viewBox="0 0 21 19" fill="none" xmlns="http://www.w3.org/2000/svg">
<path d="M14.1746 17.5982H16.3277C17.7667 17.5982 18.9333 16.4326 18.9333 14.9948C18.9333 12.8381 17.1834 11.0898 15.0249 11.0898H14.1746" stroke="#4D5B97" stroke-width="1.11035" stroke-linecap="round" stroke-linejoin="round"/>
<path d="M12.5886 7.83559C14.3408 7.83559 15.7611 6.37865 15.7611 4.58143C15.7611 2.78421 14.3408 1.32727 12.5886 1.32727" stroke="#4D5B97" stroke-width="1.11035" stroke-linecap="round" stroke-linejoin="round"/>
<path d="M1.16772 14.9948C1.16772 12.8381 2.91758 11.0898 5.07615 11.0898H8.36302C10.5215 11.0898 12.2714 12.8381 12.2714 14.9948C12.2714 16.4326 11.1048 17.5982 9.66575 17.5982H3.77334C2.3343 17.5982 1.16772 16.4326 1.16772 14.9948Z" stroke="#4D5B97" stroke-width="1.11035" stroke-linecap="round" stroke-linejoin="round"/>
<path d="M6.71996 7.83559C8.47207 7.83559 9.89244 6.37865 9.89244 4.58143C9.89244 2.78421 8.47207 1.32727 6.71996 1.32727C4.96785 1.32727 3.54749 2.78421 3.54749 4.58143C3.54749 6.37865 4.96785 7.83559 6.71996 7.83559Z" stroke="#4D5B97" stroke-width="1.11035" stroke-linecap="round" stroke-linejoin="round"/>
</svg>
