<svg width="27" height="27" viewBox="0 0 27 27" fill="none" xmlns="http://www.w3.org/2000/svg">
<path d="M23.0484 21.2522C21.9249 22.6219 20.5112 23.725 18.9095 24.4817C17.3077 25.2384 15.5579 25.6298 13.7864 25.6277C10.6037 25.6277 7.55148 24.3634 5.30105 22.113C3.05061 19.8626 1.78638 16.8103 1.78638 13.6277" stroke="#EC981A" stroke-width="1.5" stroke-linecap="round" stroke-linejoin="round"/>
<path d="M1.78638 13.6277C1.78638 10.4451 3.05061 7.39287 5.30105 5.14244C7.55148 2.892 10.6037 1.62769 13.7864 1.62769" stroke="#FFC701" stroke-width="1.5" stroke-linecap="round" stroke-linejoin="round"/>
<path d="M13.7864 1.62769C16.969 1.62769 20.0213 2.892 22.2717 5.14244C24.5221 7.39287 25.7864 10.4451 25.7864 13.6277C25.7917 16.4108 24.8231 19.1082 23.0484 21.2521" stroke="#A96500" stroke-width="1.5" stroke-linecap="round" stroke-linejoin="round"/>
<path d="M13.7864 19.6277C17.1001 19.6277 19.7864 16.9414 19.7864 13.6277C19.7864 10.314 17.1001 7.62769 13.7864 7.62769C10.4727 7.62769 7.78638 10.314 7.78638 13.6277C7.78638 16.9414 10.4727 19.6277 13.7864 19.6277Z" stroke="#EC981A" stroke-width="1.5"/>
</svg>
