<svg width="26" height="26" viewBox="0 0 26 26" fill="none" xmlns="http://www.w3.org/2000/svg">
<path d="M15.8432 18.9441L3.96325 7.23415C2.61731 5.9157 1.84793 4.1181 1.82324 2.23415C3.70777 2.20685 5.52664 2.92577 6.88324 4.23414L18.7732 15.9441L15.8432 18.9441Z" stroke="#FFC701" stroke-width="1.5" stroke-linecap="round" stroke-linejoin="round"/>
<path d="M20.8726 18.5537L24.2226 21.8437C24.3901 22.0101 24.523 22.2079 24.6137 22.4259C24.7044 22.6438 24.7511 22.8776 24.7511 23.1137C24.7511 23.3498 24.7044 23.5835 24.6137 23.8015C24.523 24.0195 24.3901 24.2173 24.2226 24.3837C23.8878 24.7129 23.4371 24.8974 22.9676 24.8974C22.4981 24.8974 22.0474 24.7129 21.7126 24.3837L18.3125 21.0737" stroke="#FFC701" stroke-width="1.5" stroke-linecap="round" stroke-linejoin="round"/>
<path d="M15.0928 24.0142L23.8228 15.2842" stroke="#EC981A" stroke-width="1.5" stroke-linecap="round" stroke-linejoin="round"/>
<path d="M10.9629 18.7845L7.96289 15.8545" stroke="#A96500" stroke-width="1.5" stroke-linecap="round" stroke-linejoin="round"/>
<path d="M15.5234 8.18402L19.6335 4.00402C20.9542 2.66267 22.7512 1.89715 24.6335 1.87402C24.6597 3.75835 23.9409 5.57683 22.6335 6.93402L18.5634 11.194" stroke="#A96500" stroke-width="1.5" stroke-linecap="round" stroke-linejoin="round"/>
<path d="M8.32336 20.885L5.02337 24.235C4.85855 24.4034 4.66174 24.5372 4.44451 24.6286C4.22729 24.72 3.99401 24.767 3.75836 24.767C3.5227 24.767 3.28942 24.72 3.0722 24.6286C2.85497 24.5372 2.65823 24.4034 2.4934 24.235C2.16243 23.9032 1.97656 23.4536 1.97656 22.985C1.97656 22.5163 2.16243 22.0668 2.4934 21.735L5.79339 18.335" stroke="#EC981A" stroke-width="1.5" stroke-linecap="round" stroke-linejoin="round"/>
<path d="M2.86328 15.1045L11.5832 23.8245" stroke="#A96500" stroke-width="1.5" stroke-linecap="round" stroke-linejoin="round"/>
</svg>
