<svg width="31" height="34" viewBox="0 0 31 34" fill="none" xmlns="http://www.w3.org/2000/svg">
<path d="M15.6098 23.9753C19.4252 23.9753 22.5182 20.8823 22.5182 17.0669C22.5182 13.2515 19.4252 10.1585 15.6098 10.1585C11.7944 10.1585 8.70135 13.2515 8.70135 17.0669C8.70135 20.8823 11.7944 23.9753 15.6098 23.9753Z" stroke="#EC981A" stroke-width="1.32353"/>
<path d="M15.609 19.5468C17.0765 19.5468 18.2661 18.3968 18.2661 16.9782C18.2661 15.5597 17.0765 14.4097 15.609 14.4097C14.1416 14.4097 12.952 15.5597 12.952 16.9782C12.952 18.3968 14.1416 19.5468 15.609 19.5468Z" stroke="#FFC701" stroke-width="1.32353"/>
<path d="M14.361 7.56528L15.5636 3.35608L16.7662 7.56528H14.361Z" stroke="#FFC701" stroke-width="1.32353"/>
<path d="M16.7665 26.5685L15.5638 30.7776L14.3613 26.5685H16.7665Z" stroke="#FFC701" stroke-width="1.32353"/>
<path d="M6.73377 13.3575L3.68982 10.2114L7.9364 11.2745L6.73377 13.3575Z" stroke="#FFC701" stroke-width="1.32353"/>
<path d="M24.3936 20.7763L27.4376 23.9224L23.191 22.8593L24.3936 20.7763Z" stroke="#FFC701" stroke-width="1.32353"/>
<path d="M23.1909 11.2745L27.4374 10.2115L24.3935 13.3576L23.1909 11.2745Z" stroke="#FFC701" stroke-width="1.32353"/>
<path d="M7.93655 22.8591L3.68994 23.9222L6.73392 20.7761L7.93655 22.8591Z" stroke="#FFC701" stroke-width="1.32353"/>
</svg>
