<svg width="27" height="30" viewBox="0 0 27 30" fill="none" xmlns="http://www.w3.org/2000/svg">
<path d="M13.1954 18.5747C15.5474 18.5747 17.454 16.6681 17.454 14.3161C17.454 11.9641 15.5474 10.0575 13.1954 10.0575C10.8434 10.0575 8.93677 11.9641 8.93677 14.3161C8.93677 16.6681 10.8434 18.5747 13.1954 18.5747Z" stroke="#EC981A" stroke-width="1.34483"/>
<path d="M13.1237 15.8851C13.9902 15.8851 14.6926 15.1827 14.6926 14.3162C14.6926 13.4496 13.9902 12.7472 13.1237 12.7472C12.2571 12.7472 11.5547 13.4496 11.5547 14.3162C11.5547 15.1827 12.2571 15.8851 13.1237 15.8851Z" stroke="#EC981A" stroke-width="1.34483"/>
<path d="M16.9722 25.4396C10.4779 27.2258 3.93141 23.7635 2.35022 17.7062C1.45085 14.2609 2.35163 10.7182 4.49082 7.97473" stroke="#A96500" stroke-width="1.34483" stroke-linecap="round" stroke-linejoin="round"/>
<path d="M9.16016 3.65374C15.6544 1.86755 22.2009 5.32992 23.7821 11.3872C24.6814 14.8325 23.7807 18.3753 21.6415 21.1187" stroke="#A96500" stroke-width="1.34483" stroke-linecap="round" stroke-linejoin="round"/>
<path d="M0.985107 8.81328L4.44291 7.86224L5.34871 11.3322" stroke="#A96500" stroke-width="1.34483" stroke-linecap="round" stroke-linejoin="round"/>
<path d="M25.1473 20.2802L21.6896 21.2312L20.7837 17.7613" stroke="#A96500" stroke-width="1.34483" stroke-linecap="round" stroke-linejoin="round"/>
</svg>
