<svg width="27" height="27" viewBox="0 0 27 27" fill="none" xmlns="http://www.w3.org/2000/svg">
<path d="M22.8125 21.095C21.689 22.4647 20.2753 23.5678 18.6736 24.3245C17.0718 25.0812 15.322 25.4726 13.5505 25.4705C10.3679 25.4705 7.31564 24.2062 5.06521 21.9558C2.81477 19.7054 1.55054 16.6531 1.55054 13.4705" stroke="#3B436B" stroke-width="1.5" stroke-linecap="round" stroke-linejoin="round"/>
<path d="M1.55054 13.4705C1.55054 10.2878 2.81477 7.23564 5.06521 4.98521C7.31564 2.73477 10.3679 1.47046 13.5505 1.47046" stroke="#4D5B97" stroke-width="1.5" stroke-linecap="round" stroke-linejoin="round"/>
<path d="M13.5505 1.47046C16.7331 1.47046 19.7854 2.73477 22.0358 4.98521C24.2862 7.23564 25.5505 10.2878 25.5505 13.4705C25.5558 16.2536 24.5872 18.951 22.8125 21.0949" stroke="#2D3660" stroke-width="1.5" stroke-linecap="round" stroke-linejoin="round"/>
<path d="M13.5505 19.4705C16.8642 19.4705 19.5505 16.7842 19.5505 13.4705C19.5505 10.1568 16.8642 7.47046 13.5505 7.47046C10.2368 7.47046 7.55054 10.1568 7.55054 13.4705C7.55054 16.7842 10.2368 19.4705 13.5505 19.4705Z" stroke="#3B436B" stroke-width="1.5"/>
</svg>
