<svg width="146" height="42" viewBox="0 0 146 42" fill="none" xmlns="http://www.w3.org/2000/svg">
<g clip-path="url(#clip0_1_334)">
<path d="M4.27205 25.7516C0.388528 24.0166 -0.769712 18.8118 2.09183 15.6195L2.15996 15.5501C3.99952 13.5376 6.38414 12.2884 8.76876 11.0393C14.3556 8.1246 20.4193 5.07111 26.6875 6.04268C31.116 6.73666 35.2039 9.37376 39.6325 9.65135C45.1512 10.0677 50.3292 6.87544 55.8479 6.45906C61.8435 5.97328 67.771 8.74918 73.8348 8.26339C82.6919 7.56942 90.3908 0.005081 99.1798 0.976648C105.175 1.67062 110.285 6.25086 116.281 6.66725C120.71 6.94484 125.615 5.00171 129.362 7.43062C132.224 9.30437 133.586 13.3294 136.925 14.0234C139.378 14.5092 142.239 12.913 144.283 14.648C145.373 15.6195 145.714 17.0769 145.373 18.5342C144.828 21.0325 142.852 22.6287 141.013 24.1554C137.266 27.1395 132.564 30.3318 128.136 28.6663C125.479 27.6947 123.162 25.0576 120.437 25.821C119.279 26.168 118.325 27.0007 117.235 27.5559C115.123 28.5969 112.67 28.1805 110.353 28.1805C108.037 28.1805 105.312 29.0133 104.562 31.234C103.949 32.9689 104.767 34.9121 105.244 36.7164C105.721 38.5901 105.38 41.1579 103.472 41.6436C102.314 41.9212 101.156 41.2967 100.542 40.2557C98.9755 37.688 100.202 34.6345 99.3161 31.9974C98.5667 29.846 96.4546 28.3887 94.2744 28.1111C92.9798 27.9723 91.6853 28.1805 90.3908 28.7357C88.3469 29.6378 86.0985 29.5684 83.9864 28.8745C83.1007 28.5969 82.2831 28.4581 81.3293 28.3887C79.0809 28.3193 76.6963 29.5684 76.0831 31.7198C75.6062 33.3159 75.9469 35.5366 74.448 36.2306C73.6985 36.5776 72.8809 36.3694 72.2677 35.8836C71.3139 35.0509 70.9051 33.8711 70.4282 32.6913C68.9293 28.9439 65.182 25.5434 61.3666 26.5844C57.8238 27.5559 55.3029 31.928 51.76 31.1646C48.8985 30.54 47.5358 26.8619 44.6743 26.2374C40.9952 25.474 38.1336 30.3318 34.3864 30.0542C33.0237 29.9154 31.8655 29.1521 30.571 28.6663C29.3446 28.1111 27.7776 27.9029 26.6875 28.8051C25.5973 29.7072 25.5973 31.3034 25.8699 32.6913C26.0743 33.4547 26.2787 34.2181 26.4831 34.9815C26.8237 36.5776 26.3468 38.3126 25.1886 39.4923C22.5995 42.1294 18.7842 39.9087 18.4435 36.994C18.2391 35.606 18.7842 34.1487 19.1248 32.7607C19.4655 31.3728 19.4655 29.7072 18.5116 28.6663C17.5578 27.6253 16.0589 27.5559 14.6281 27.4865C11.2896 27.3477 7.81491 27.2783 4.27205 25.7516Z" fill="#D9F1FF"/>
<path d="M135.221 21.1024C138.015 19.992 140.604 18.3959 143.397 17.1467C144.078 16.8691 144.76 16.5915 145.441 16.3833C145.237 15.7588 144.896 15.1342 144.419 14.7178C142.375 12.9135 139.513 14.579 137.061 14.0932C133.722 13.3992 132.36 9.37417 129.498 7.50043C125.751 5.07152 120.845 7.01465 116.417 6.73706C110.421 6.32067 105.311 1.74043 99.3156 1.04645C90.5266 0.0748869 82.8277 7.56983 73.9705 8.33321C67.9068 8.68019 61.9793 5.90429 55.9156 6.39007C50.3969 6.80646 45.2188 9.99875 39.7001 9.58236C35.2034 9.23537 31.1837 6.59826 26.7551 5.97369C20.5551 5.07152 14.4232 8.05561 8.83638 10.9703C6.45176 12.2195 3.99901 13.4686 2.22758 15.4812L2.15945 15.5506C1.68252 16.0364 1.34186 16.6609 1.06934 17.2161C2.56824 19.645 5.29352 21.1718 8.08693 21.3106C11.6298 21.4494 15.1045 19.3674 18.5792 19.992C22.054 20.6166 24.7111 23.8783 28.1858 24.1559C32.0694 24.5029 35.7485 21.1718 39.4958 22.2127C41.1991 22.6985 42.7661 24.0865 44.5375 23.7395C45.832 23.4619 46.9221 22.2821 48.2166 22.4903C49.7155 22.7679 50.2606 24.7805 51.6232 25.405C53.1903 26.099 54.8254 24.7805 56.2562 23.8783C60.5485 21.1718 66.6123 21.9351 70.0189 25.6826C70.5639 26.2378 71.1771 26.7236 71.9266 27.0012C74.0386 27.8339 74.7881 26.3072 75.8782 25.2662C77.9222 23.3231 81.0562 23.3231 83.9178 23.4619C87.5288 23.6701 91.1398 23.8783 94.7508 24.5029C97.3398 24.9886 99.8606 25.6826 102.518 25.6132C105.107 25.5438 107.9 24.5029 109.263 22.7679C110.149 21.5882 111.852 21.5882 113.283 21.8658C114.713 22.2127 116.144 22.7679 117.507 22.4209C119.074 22.0045 120.232 20.5472 121.799 20.2696C123.434 19.992 125.001 21.033 126.568 21.6576C129.226 22.6985 132.428 22.1433 135.221 21.1024Z" fill="white"/>
<path opacity="0.5" d="M0.797363 21.7956C1.34242 23.4611 2.50066 24.9878 4.27209 25.7512C7.74682 27.278 11.2897 27.3474 14.8325 27.4862C16.1952 27.4862 17.7622 27.625 18.7161 28.6659C19.6699 29.7069 19.6018 31.3724 19.3293 32.7604C18.9886 34.1483 18.5117 35.5363 18.6479 36.9936C19.0567 39.9083 22.804 42.0597 25.393 39.4919C26.5512 38.3122 27.0282 36.6466 26.6875 34.9811C26.4831 34.2177 26.2787 33.4544 26.0743 32.691C25.8018 31.303 25.8018 29.7069 26.8919 28.8047C27.9139 27.9025 29.4809 28.1801 30.7754 28.6659C32.0018 29.2211 33.2282 29.9845 34.5908 30.0539C38.3381 30.3315 41.1996 25.4736 44.8787 26.237C47.7403 26.8616 49.1029 30.5397 51.9645 31.1642C55.5073 31.9276 58.0963 27.5556 61.5711 26.584C65.3864 25.543 69.1337 29.0129 70.6326 32.691C71.1095 33.8013 71.4502 35.0505 72.4722 35.8833C73.0854 36.3691 73.9711 36.5772 74.6524 36.2303C76.1513 35.5363 75.8106 33.3156 76.2876 31.7194C76.9007 29.5681 79.3535 28.3883 81.5337 28.3883C82.4194 28.3883 83.3051 28.5965 84.1909 28.8741C86.3029 29.4987 88.5513 29.5681 90.5953 28.7353C91.8898 28.1801 93.1843 27.9719 94.4788 28.1107C96.659 28.3883 98.8392 29.8457 99.5206 31.997C100.406 34.6341 99.1799 37.6876 100.747 40.2553C101.36 41.2963 102.518 41.8515 103.677 41.6433C105.652 41.1575 105.925 38.6592 105.448 36.716C104.971 34.9117 104.154 33.038 104.767 31.2336C105.516 29.0129 108.241 28.2495 110.558 28.1801C112.874 28.1801 115.327 28.5965 117.439 27.5556C118.529 27.0004 119.415 26.0982 120.641 25.8206C123.367 25.1266 125.683 27.6943 128.34 28.6659C132.837 30.3315 137.47 27.1392 141.217 24.1551C142.784 22.9059 144.419 21.518 145.237 19.6442C143.602 20.4076 142.171 21.7262 140.4 22.1425C138.696 22.5589 136.789 22.1425 135.154 22.7671C132.496 23.7387 130.589 27.3474 127.387 25.1266C126.978 24.849 126.637 24.5021 126.296 24.1551C126.296 24.1551 126.296 24.1551 126.296 24.0857C124.866 22.5589 122.617 22.1425 120.846 23.1835C117.03 25.4042 111.989 25.4042 107.424 26.5146C106.197 26.7922 104.903 27.2086 103.949 28.1107C102.995 29.0129 102.45 30.4703 102.927 31.65C103.132 32.1358 103.472 32.6216 103.54 33.1074C103.54 33.6625 102.927 34.2177 102.518 33.8013C102.382 33.6625 102.314 33.4544 102.314 33.1768C101.701 29.5681 98.2942 27.0004 94.8194 26.1676C92.2986 25.6124 87.9381 26.0288 85.6216 26.3064C84.6678 26.4452 83.7821 26.5146 82.8282 26.5146C80.4436 26.584 75.5381 27.0698 74.1755 29.5681C73.9029 30.0539 73.6304 30.609 73.0854 30.6784C72.404 30.8172 71.9271 30.1233 71.5183 29.4987C68.793 25.3348 63.4106 24.5715 58.5732 25.4042C57.0743 25.8206 56.0524 26.4452 55.0304 27.278C54.0765 28.1107 52.782 28.8047 51.6238 28.4577C50.9425 28.2495 50.3974 27.625 49.8524 27.1392C47.1952 24.849 43.3798 24.4327 39.9051 24.7796C35.9534 25.1266 32.0699 26.3064 28.1183 25.89C27.5051 25.8206 26.96 25.8206 26.3468 25.9594C23.0084 26.8616 23.5534 29.2905 23.6216 31.4418C23.6897 32.8298 23.0084 35.8833 21.9864 34.9811C20.6919 33.8707 22.5996 31.5112 22.3952 29.7763C22.2589 28.0413 21.5095 26.237 20.1468 25.196C18.3754 23.8081 15.9227 23.8775 13.6743 23.9469C10.6084 24.0163 7.47429 24.0857 4.47649 23.3223C3.25011 22.9059 2.02374 22.4201 0.797363 21.7956Z" fill="#B4DCFF"/>
</g>
<defs>
<clipPath id="clip0_1_334">
<rect width="145" height="41" fill="white" transform="translate(0.5 0.890625)"/>
</clipPath>
</defs>
</svg>
