<svg width="165" height="45" viewBox="0 0 165 45" fill="none" xmlns="http://www.w3.org/2000/svg">
<g clip-path="url(#clip0_1_1203)">
<path d="M44.8081 35.3969V13.8448H50.3965C51.6602 13.8191 52.9203 13.9847 54.1345 14.336C55.1139 14.6188 55.9633 15.2356 56.5353 16.0794C57.0954 16.9142 57.375 18.0672 57.3737 19.5384C57.3811 20.3313 57.3031 21.1226 57.1411 21.8986C57.0068 22.5439 56.7346 23.1525 56.3432 23.6827C55.9205 24.2189 55.3655 24.6357 54.7328 24.8924L57.7136 35.4025H53.2166L50.7418 25.6366H49.198V35.4025L44.8081 35.3969ZM49.198 23.0234H50.4759C51.1851 23.0234 51.7435 22.9076 52.151 22.6762C52.5601 22.4454 52.8688 22.0709 53.0172 21.6253C53.1997 21.0627 53.2852 20.4732 53.2702 19.882C53.2702 18.8896 53.0854 18.1318 52.7161 17.6085C52.3467 17.0853 51.6695 16.8236 50.6846 16.8236H49.1943L49.198 23.0234Z" fill="#F9F9F9"/>
<path d="M65.7864 35.6904C64.1539 35.6904 62.8851 35.4108 61.9801 34.8519C61.0781 34.2945 60.4038 33.4342 60.078 32.4252C59.7086 31.3688 59.5239 30.0872 59.5239 28.5801V13.8445H63.8602V29.197C63.86 29.7225 63.9001 30.2473 63.9803 30.7667C64.0355 31.2255 64.2199 31.6591 64.5121 32.017C64.7866 32.3371 65.2084 32.4972 65.7772 32.4972C66.346 32.4972 66.7769 32.3371 67.0699 32.017C67.3601 31.6592 67.5404 31.2249 67.5889 30.7667C67.6595 30.2464 67.6947 29.722 67.6941 29.197V13.8445H72.0323V28.5857C72.0323 30.0926 71.8476 31.3743 71.4782 32.4308C71.1519 33.438 70.4775 34.2963 69.5761 34.8519C68.681 35.4096 67.4177 35.689 65.7864 35.6904Z" fill="#F9F9F9"/>
<path d="M80.2147 35.6906C78.8836 35.6906 77.7757 35.4443 76.8904 34.9518C75.9948 34.4547 75.2883 33.6756 74.8811 32.7357C74.4292 31.7507 74.1675 30.4961 74.0962 28.9718L77.8747 28.3329C77.8928 29.0791 77.9863 29.8216 78.1536 30.549C78.2541 31.0488 78.4942 31.5099 78.8462 31.8787C79.0009 32.0245 79.1827 32.1383 79.3814 32.2137C79.58 32.2891 79.7917 32.3247 80.0041 32.3183C80.5716 32.3183 80.957 32.141 81.1602 31.7864C81.3698 31.4128 81.4757 30.9901 81.4668 30.5619C81.4947 29.7538 81.2666 28.9575 80.8148 28.2867C80.3166 27.6065 79.7409 26.9867 79.0991 26.4399L76.8626 24.4971C76.0873 23.8497 75.4267 23.076 74.9087 22.2089C74.4028 21.3569 74.1498 20.3104 74.1498 19.0693C74.1498 17.2964 74.6687 15.9353 75.7065 14.986C76.7445 14.0368 78.1671 13.5708 79.9746 13.588C81.0568 13.588 81.9439 13.7653 82.6358 14.1199C83.2907 14.4413 83.847 14.9331 84.2463 15.5438C84.6268 16.1381 84.897 16.7962 85.044 17.4866C85.1926 18.1743 85.2859 18.8727 85.3228 19.5754L81.572 20.1294C81.5436 19.5469 81.4857 18.9662 81.3984 18.3896C81.3483 17.9632 81.1828 17.5584 80.9201 17.2189C80.7842 17.0708 80.6166 16.9556 80.4298 16.8817C80.243 16.8078 80.0419 16.7772 79.8416 16.7922C79.6174 16.7779 79.3935 16.8234 79.1926 16.9239C78.9917 17.0245 78.8212 17.1767 78.6984 17.3647C78.453 17.74 78.3244 18.1795 78.329 18.6279C78.3004 19.2944 78.4827 19.9528 78.8499 20.5098C79.2644 21.0723 79.7422 21.5854 80.2737 22.0389L82.4548 23.956C83.3549 24.7314 84.1392 25.632 84.7836 26.6301C85.43 27.6323 85.7539 28.8697 85.7551 30.3422C85.7683 31.3006 85.5295 32.2457 85.0625 33.0828C84.6109 33.8885 83.9431 34.5519 83.1345 34.998C82.2376 35.4777 81.2314 35.7163 80.2147 35.6906Z" fill="#F9F9F9"/>
<path d="M90.0692 35.3967V17.1133H86.7449V13.8445H97.7612V17.1171H94.4868V35.4003L90.0692 35.3967Z" fill="#F9F9F9"/>
<path d="M103.091 35.3967V26.8552L98.8879 13.8445H103.012L105.326 21.4274L107.476 13.8445H111.468L107.317 26.8552V35.3967H103.091Z" fill="#F9F9F9"/>
<path d="M113.16 35.3967V13.8445H117.55V32.4252H122.606V35.4059L113.16 35.3967Z" fill="#FFC239"/>
<path d="M130.4 35.6907C128.821 35.6907 127.571 35.4069 126.648 34.8393C125.729 34.2759 125.03 33.4168 124.666 32.4034C124.267 31.3495 124.068 30.0856 124.068 28.6119V20.5765C124.068 19.099 124.267 17.8394 124.666 16.7979C125.029 15.7923 125.729 14.9438 126.648 14.397C127.571 13.8578 128.821 13.5881 130.4 13.5881C131.979 13.5881 133.242 13.8676 134.191 14.4266C135.113 14.9734 135.817 15.8214 136.186 16.8274C136.585 17.8654 136.786 19.1205 136.787 20.5931V28.6285C136.787 30.1059 136.586 31.3697 136.186 32.42C135.82 33.4362 135.116 34.296 134.191 34.8559C133.26 35.4124 131.995 35.6907 130.4 35.6907ZM130.4 32.5234C130.967 32.5234 131.385 32.3959 131.65 32.1374C131.93 31.8544 132.116 31.492 132.182 31.0995C132.274 30.6398 132.318 30.172 132.315 29.7033V19.5127C132.319 19.0483 132.274 18.5847 132.182 18.1294C132.115 17.7388 131.93 17.3783 131.65 17.0971C131.385 16.8508 130.968 16.7277 130.4 16.7277C129.868 16.7277 129.477 16.8569 129.202 17.1136C128.923 17.3929 128.738 17.7507 128.67 18.1387C128.578 18.594 128.533 19.0575 128.537 19.522V29.7125C128.535 30.1807 128.575 30.648 128.657 31.1088C128.715 31.5013 128.896 31.8649 129.176 32.1467C129.441 32.3959 129.85 32.5234 130.4 32.5234Z" fill="#FFC239"/>
<path d="M145.196 35.6907C143.618 35.6907 142.367 35.4069 141.444 34.8393C140.526 34.2759 139.827 33.4168 139.462 32.4034C139.068 31.3495 138.871 30.0856 138.871 28.6119V20.5765C138.871 19.099 139.07 17.8394 139.47 16.7979C139.832 15.7923 140.533 14.9438 141.451 14.397C142.369 13.8578 143.617 13.5881 145.196 13.5881C146.776 13.5881 148.04 13.8676 148.988 14.4266C149.91 14.9734 150.614 15.8214 150.982 16.8274C151.382 17.8654 151.581 19.1205 151.581 20.5931V28.6285C151.581 30.1059 151.382 31.3697 150.982 32.42C150.616 33.4362 149.912 34.296 148.988 34.8559C148.056 35.4124 146.792 35.6907 145.196 35.6907ZM145.196 32.5234C145.763 32.5234 146.181 32.3959 146.447 32.1374C146.726 31.8544 146.912 31.492 146.979 31.0995C147.07 30.6398 147.114 30.172 147.112 29.7033V19.5127C147.115 19.0483 147.07 18.5847 146.979 18.1294C146.911 17.7383 146.724 17.3778 146.443 17.0971C146.18 16.8508 145.764 16.7277 145.196 16.7277C144.662 16.7277 144.263 16.8564 143.998 17.1136C143.72 17.3929 143.535 17.7507 143.466 18.1387C143.375 18.594 143.33 19.0575 143.333 19.522V29.7125C143.331 30.1807 143.371 30.648 143.453 31.1088C143.511 31.5013 143.692 31.8649 143.972 32.1467C144.238 32.3959 144.646 32.5234 145.196 32.5234Z" fill="#FFC239"/>
<path d="M156.354 35.3967V17.1133H153.03V13.8445H164.046V17.1171H160.773V35.4003L156.354 35.3967Z" fill="#FFC239"/>
</g>
<path d="M37.3506 36.7156C37.0366 36.6214 36.6709 36.6971 36.3459 37.2493L31.3743 37.2641L30.6725 39.2088C30.5963 39.4195 30.457 39.6018 30.2737 39.7306C30.0902 39.8594 29.8717 39.9287 29.6476 39.929L30.6079 37.266H29.8802L29.1803 39.2069C29.1037 39.4178 28.9641 39.6001 28.7804 39.7289C28.5967 39.8577 28.3778 39.927 28.1535 39.9272L29.1138 37.2678H28.3861L27.6936 39.2088C27.6178 39.4198 27.4787 39.6023 27.2952 39.7313C27.1117 39.8602 26.8928 39.9293 26.6686 39.929L27.6272 37.2733L22.2714 37.2881H18.5981C18.6641 37.0382 18.811 36.8173 19.0157 36.6595C19.2205 36.5019 19.4718 36.4164 19.7301 36.4164H22.5004L26.748 21.4037H19.2593C17.3054 27.6349 15.3514 34.6693 13.3975 41.0629C13.0669 42.1415 13.8666 43.4639 14.995 43.4805C21.9132 43.5599 28.8313 43.4028 35.7512 43.4805C35.9431 43.4829 36.1305 43.4216 36.2836 43.3059C36.4367 43.1901 36.5471 43.0268 36.5971 42.8414L37.9544 37.8459C38.0196 37.6159 37.993 37.3697 37.8805 37.159C37.7679 36.9481 37.5779 36.7892 37.3506 36.7156Z" fill="url(#paint0_linear_1_1203)"/>
<path d="M31.4343 4.92458V4.90796H23.7534C23.5829 4.90795 23.414 4.9417 23.2565 5.00724C23.0991 5.07278 22.9562 5.16884 22.836 5.28986C22.7159 5.41088 22.6208 5.55449 22.5565 5.7124C22.492 5.87031 22.4594 6.03941 22.4607 6.20996H26.278C26.1903 6.44479 26.0348 6.64828 25.8313 6.7946C25.6277 6.94091 25.3854 7.02347 25.1348 7.03179L23.6685 7.07426C23.011 9.22024 22.3523 11.3662 21.6924 13.5122H29.0076L31.0705 6.20996H31.2736C31.4365 6.21226 31.5946 6.15466 31.7179 6.0481C31.841 5.94154 31.9209 5.79343 31.9421 5.63191C31.9604 5.472 31.9185 5.31101 31.8247 5.18027C31.7308 5.04953 31.5917 4.95839 31.4343 4.92458Z" fill="url(#paint1_linear_1_1203)"/>
<path d="M37.571 16.0071L37.5544 15.8132C37.1499 11.2922 33.3049 7.86267 28.7637 7.86267H15.6218C15.0887 7.86236 14.5684 8.02614 14.1316 8.33176C13.6948 8.63738 13.3627 9.07004 13.1803 9.57097C12.8368 10.402 12.4921 11.2331 12.1461 12.0642H11.0011C10.6104 12.0646 10.225 12.1546 9.87441 12.3271C9.52386 12.4997 9.2175 12.7502 8.97884 13.0596H15.487C16.0577 13.0596 16.6227 13.0762 17.186 13.0873C17.3809 13.0915 17.5726 13.1373 17.7482 13.2218C17.9239 13.3062 18.0795 13.4274 18.2044 13.577C18.3293 13.7266 18.4208 13.9012 18.4726 14.0891C18.5244 14.277 18.5353 14.4738 18.5046 14.6663L16.97 18.877H16.2442L17.7069 14.814H17.2525L15.788 18.877H14.8646L16.3309 14.814C13.9116 14.766 11.954 14.7199 9.53473 14.6737C9.24911 14.6685 8.96767 14.7428 8.7218 14.8882C8.47592 15.0337 8.27528 15.2446 8.14223 15.4974C8.02745 15.7164 7.94295 15.95 7.89107 16.1918C7.87201 16.2801 7.87426 16.3716 7.89763 16.4589C7.921 16.5462 7.96483 16.6266 8.02547 16.6936C8.08612 16.7606 8.16185 16.8121 8.24638 16.844C8.33092 16.8759 8.42184 16.8871 8.5116 16.877H8.52452C8.65543 16.8538 8.77904 16.8002 8.88526 16.7202C8.99149 16.6403 9.07734 16.5364 9.13582 16.4171H13.3465C13.348 16.4984 13.3333 16.5791 13.3032 16.6547C13.2732 16.7302 13.2284 16.7991 13.1716 16.8572C13.1147 16.9152 13.0468 16.9615 12.9719 16.9931C12.897 17.0246 12.8165 17.0411 12.7352 17.0413H10.5339C7.48663 26.1017 5.34802 32.6264 4.46341 34.6413C3.57879 36.6562 4.33228 37.4984 4.97866 37.816C5.25811 37.9499 5.5645 38.0182 5.87436 38.0155H11.4296L15.1231 27.2209H14.028C13.7439 27.2209 13.4715 27.108 13.2706 26.9071C13.0697 26.7062 12.9569 26.4339 12.9569 26.1497H19.1602C21.7882 29.8434 24.4163 33.5886 27.0443 37.2878C29.5707 37.2878 32.0971 37.249 34.6161 37.249L25.8493 25.459L28.747 25.5384C30.8514 25.5468 32.8894 24.8015 34.4917 23.4373C36.0941 22.0731 37.155 20.1802 37.4824 18.1013C37.5888 17.4086 37.6185 16.7063 37.571 16.0071ZM15.2635 20.3287H14.414L14.8295 19.1799H15.6772L15.2635 20.3287ZM16.4436 20.3287H15.8009L16.2128 19.1873H16.8592L16.4436 20.3287ZM20.2388 20.3287C19.4115 20.3287 18.4018 20.3287 17.2101 20.3287L17.6237 19.1928H20.6506L20.2388 20.3287ZM17.7364 18.877L19.1677 14.947C20.3976 14.9636 21.4171 14.971 22.1706 14.9729L20.7614 18.877H17.7364ZM21.6903 20.336H21.3044H21.0033L21.4152 19.1836H22.1041L21.6903 20.336ZM21.526 18.877L22.9351 14.9747H23.6314L22.2149 18.877H21.526ZM25.5132 19.6434C24.4643 20.1735 23.4818 20.3046 22.4568 20.3304L22.8705 19.1836C23.5214 19.2181 24.1736 19.2181 24.8244 19.1836C25.794 19.1337 26.2336 19.034 26.6712 18.8013C26.8549 18.7023 27.0277 18.584 27.1865 18.4486C26.6953 18.9327 26.1306 19.336 25.5132 19.6434ZM27.6574 17.4272C27.4727 18.0903 26.7986 18.4061 26.433 18.576C25.9418 18.8013 25.5096 18.8327 24.673 18.8807C24.1096 18.9151 23.5446 18.9151 22.9813 18.8807L24.3849 14.9895C24.5695 14.9562 26.0894 14.7272 27.0443 15.743C27.1736 15.876 27.879 16.6165 27.6574 17.4235V17.4272Z" fill="url(#paint2_linear_1_1203)"/>
<path d="M17.2709 16.0402L17.7105 14.8213H17.2505L16.5525 16.7586L17.2709 16.0402Z" fill="url(#paint3_linear_1_1203)"/>
<path d="M18.0559 13.4234C18.2296 13.5757 18.3619 13.7696 18.4405 13.987C18.5189 14.2044 18.541 14.4381 18.5046 14.6663L18.4252 14.8805L25.456 7.86267H23.6314L18.0559 13.4234Z" fill="url(#paint4_linear_1_1203)"/>
<path d="M15.106 18.2051L16.1421 15.3369L8.57012 22.9088C8.24756 23.874 7.93975 24.7932 7.64673 25.6661L15.106 18.2051Z" fill="url(#paint5_linear_1_1203)"/>
<path d="M34.0585 9.60449L27.4266 16.2364C27.5425 16.4088 27.6226 16.6028 27.6623 16.8068C27.7019 17.0108 27.7003 17.2205 27.6574 17.4239C27.4728 18.0869 26.7987 18.4027 26.4331 18.5725C25.9658 18.7868 25.5539 18.8255 24.7912 18.8718L24.4643 19.2005L24.8245 19.1838C25.7941 19.134 26.2336 19.0342 26.6713 18.8016C26.855 18.7025 27.0278 18.5843 27.1866 18.4488C26.6988 18.932 26.1379 19.3353 25.5244 19.6438C24.8618 19.978 24.1441 20.1894 23.4061 20.268L17.5129 26.1463H19.1604C19.5395 26.6782 19.9176 27.2113 20.2943 27.7457L36.1768 11.8631C35.609 10.9915 34.892 10.2269 34.0585 9.60449Z" fill="url(#paint6_linear_1_1203)"/>
<path d="M14.4324 29.2303L5.6582 38.0046C5.72999 38.0119 5.8021 38.0156 5.87428 38.0156H10.0277L12.1571 35.8844L14.4324 29.2303Z" fill="url(#paint7_linear_1_1203)"/>
<path d="M28.7633 7.86273H26.8887L19.7896 14.9545C20.7425 14.9655 21.5478 14.9711 22.1701 14.9729L20.761 18.8771H17.736L18.8071 15.937L17.603 17.1411L16.9695 18.8771H16.2438L16.458 18.2824L15.5604 19.1836H15.6768L15.2631 20.3287H14.4136L6.90816 27.8359C5.77053 31.1953 4.93762 33.5666 4.463 34.6414C3.72427 36.3201 4.11395 37.1659 4.6329 37.5963L15.0082 27.2209H14.0276C13.7435 27.2209 13.471 27.1081 13.2702 26.9072C13.0693 26.7063 12.9564 26.4339 12.9564 26.1498H16.0794L22.7722 19.457L22.8701 19.1836H23.0381L23.3336 18.8863C23.2099 18.8863 23.0917 18.8863 22.9809 18.8696L24.3844 14.9785C24.5562 14.9489 25.8065 14.7605 26.7521 15.4697L33.1919 9.02991C31.8434 8.25965 30.3161 7.85716 28.7633 7.86273ZM16.4432 20.3213H15.8005L16.2124 19.1799H16.8587L16.4432 20.3213ZM20.2384 20.3213C19.411 20.3213 18.4014 20.3213 17.2096 20.3213L17.6233 19.1855H20.6502L20.2384 20.3213ZM21.6899 20.3323H21.304H21.003L21.4149 19.1836H22.1037L21.6899 20.3323ZM22.2145 18.8734H21.5257L22.9347 14.9711H23.6309L22.2145 18.8734Z" fill="url(#paint8_linear_1_1203)"/>
<g clip-path="url(#clip1_1_1203)">
<path d="M27.4235 5.34935C27.4502 5.34935 27.4502 5.34935 27.4768 5.34935C27.4235 5.32274 27.3703 5.29614 27.3438 5.26953C27.3703 5.29614 27.3969 5.32274 27.4235 5.34935Z" fill="#662D91"/>
<path d="M7.23085 1.86446C5.18232 2.66259 3.34662 4.17904 2.54849 6.25418C1.9898 7.71741 2.09621 9.26047 2.28244 10.7769C2.70811 14.475 3.58606 17.428 2.65491 20.8068C2.68151 20.8068 2.73472 20.8068 2.78793 20.8068C2.81453 20.7802 2.89434 20.7536 2.94755 20.7536C3.39983 20.6206 4.03833 20.6738 4.38419 20.8866C4.59702 20.8866 4.83646 20.8866 5.04929 20.8866C5.1025 20.8866 5.18232 20.8866 5.23553 20.9132C5.6878 20.0353 6.11347 19.1573 6.48593 18.2528C6.48593 18.1197 6.45932 18.0133 6.45932 17.8803C6.43272 17.6143 6.45932 17.3482 6.51253 17.0822C5.95384 16.0978 5.60799 14.5282 6.16668 13.5172C6.16668 12.9851 6.3263 12.3998 6.61895 12.054C6.83179 11.7879 7.17764 11.5219 7.5501 11.309C7.86935 10.0586 9.14636 9.26047 10.4233 9.18065C10.849 8.59536 11.5673 8.11648 12.126 7.77062C12.6847 7.42477 13.137 7.26514 13.6159 7.31835C14.414 6.65324 15.7176 5.88172 16.6754 5.96153C17.101 5.50926 17.7927 5.19 18.378 5.11019C18.6707 5.08359 18.9101 5.13679 19.123 5.24321C19.7615 4.81754 20.533 4.60471 21.2779 4.49829C21.7302 4.44508 22.0228 4.5249 22.3155 4.71113C22.9274 4.39187 23.6723 4.15243 24.3374 4.33866C24.5502 4.39187 24.7631 4.49829 24.9493 4.65792C25.2154 4.5781 25.4814 4.5515 25.7474 4.5781C25.9603 4.5781 26.1465 4.60471 26.3327 4.65792C20.666 1.81125 13.2168 -0.450113 7.23085 1.86446Z" fill="#F11008"/>
<path d="M30.9354 9.81891C30.9354 9.79231 30.9354 9.7657 30.9354 9.7657C30.8556 9.18041 30.6959 8.62172 30.2969 8.22265C30.2703 7.61075 29.9776 7.02546 29.5254 6.6796C29.4721 6.49337 29.3923 6.30714 29.2593 6.14751C28.807 5.58882 28.1419 5.40259 27.4768 5.37599C27.4502 5.37599 27.4502 5.37599 27.4236 5.37599C27.397 5.34938 27.3704 5.32278 27.3438 5.29617C27.1576 5.13655 26.9181 5.00353 26.7053 4.89711C26.5989 4.8439 26.4925 4.8173 26.3594 4.76409C26.3594 4.76409 26.3328 4.76409 26.3062 4.76409C26.12 4.71088 25.9338 4.68428 25.7209 4.68428C25.4549 4.68428 25.1888 4.68428 24.9228 4.76409C24.71 4.60446 24.4971 4.49804 24.3109 4.44484C23.6458 4.25861 22.9009 4.49804 22.289 4.8173C21.9963 4.60446 21.6771 4.52465 21.2514 4.60446C20.5065 4.71088 19.7084 4.92371 19.0965 5.34938C18.8836 5.24297 18.6442 5.16315 18.3515 5.21636C17.7928 5.26957 17.0745 5.61543 16.6489 6.0677C15.7177 5.98789 14.3875 6.75941 13.5894 7.42452C13.1371 7.37131 12.6848 7.50433 12.0995 7.8768C11.5408 8.22265 10.7959 8.70153 10.3968 9.28682C9.11987 9.36664 7.84286 10.1914 7.52361 11.4152C7.12455 11.628 6.80529 11.8941 6.59246 12.1601C6.32642 12.506 6.14018 13.0913 6.14018 13.6234C5.58149 14.6343 5.92735 16.1774 6.48604 17.1884C6.43283 17.4544 6.40623 17.7204 6.43283 17.9865C6.43283 18.1195 6.45944 18.2259 6.45944 18.3589C6.53925 18.8112 6.72548 19.2103 7.01813 19.6093C7.01813 19.9818 7.12454 20.3543 7.31078 20.7001C7.60342 21.1524 8.16211 21.6313 8.7208 21.5515C8.80062 21.6313 8.90703 21.7111 9.04006 21.7643C9.49233 22.0037 9.97121 22.19 10.4767 22.2166C11.1684 22.7487 12.1793 22.9083 12.871 22.4028C12.9242 22.3762 12.9242 22.2698 12.871 22.2432C12.3922 22.0037 11.8335 21.7643 11.461 21.3386C11.0353 20.8331 10.9023 20.1946 10.8757 19.5295C11.1684 19.2369 11.3014 18.7846 11.3546 18.3323C11.5674 18.2791 11.8335 18.1195 12.0197 18.0397C12.472 17.8003 12.8976 17.4544 13.2169 17.0287C13.616 16.9489 14.015 16.7893 14.2811 16.6829C14.7333 16.47 15.3452 16.1508 15.6379 15.6985C15.8241 15.6453 15.9571 15.6187 16.0636 15.5921C16.6755 15.4591 17.314 15.2462 17.8194 14.8472C18.724 14.8206 19.6285 14.6343 20.2404 14.0224C20.6129 13.9958 20.9588 13.916 21.2248 13.8894C21.7835 13.8096 22.289 13.6234 22.7412 13.3041C23.0871 13.3307 23.4596 13.3041 23.8586 13.2243C24.3109 13.1445 24.9228 13.0647 25.3485 12.772C26.0136 12.8252 26.7585 12.7188 27.397 12.4794C27.9025 12.6922 28.5144 12.7188 29.0465 12.772C29.0199 12.8252 29.0199 12.8784 29.0465 12.9583C29.0465 13.1977 29.1795 13.4105 29.2593 13.65C29.3923 13.9958 29.4721 14.3151 29.5254 14.6609C29.4455 15.193 29.3391 15.6985 29.1795 16.2306C29.1795 16.2572 29.2061 16.337 29.2327 16.337C29.5786 16.4168 29.818 16.071 30.0574 15.8581C30.6161 15.3793 31.2014 14.9004 31.6271 14.2885C32.0794 13.5968 32.2124 12.7188 31.8133 12.0005C31.8133 11.1492 31.4409 10.2978 30.9354 9.81891Z" fill="#EDEDED"/>
<path d="M0.154193 25.5689C0.313819 26.0743 0.739489 26.6596 1.27158 26.8991C1.35139 27.0321 1.48441 27.1651 1.61743 27.2981C2.17613 27.6972 2.92105 27.9632 3.58615 27.8302C4.41089 27.91 5.47506 27.5376 6.14017 26.9789C7.5768 26.5532 7.73643 23.5469 6.72547 22.2167C6.67226 21.9773 6.53924 21.7112 6.353 21.4984C6.03375 21.1259 5.63469 20.9663 5.23562 20.9131C5.18241 20.9131 5.1026 20.8865 5.04939 20.8865C4.83656 20.8865 4.59712 20.8865 4.38428 20.8865C4.01182 20.6737 3.39992 20.6204 2.94765 20.7535C2.89444 20.7535 2.84123 20.7801 2.78802 20.8067C2.76142 20.8067 2.70821 20.7801 2.655 20.8067C1.77706 20.7535 0.739489 21.525 0.606467 22.4029C0.420237 22.5626 0.287215 22.7488 0.180798 23.0148C0.0477762 23.3873 -0.00543249 23.9992 0.127589 24.5047C0.0477762 24.8505 0.0477762 25.223 0.154193 25.5689Z" fill="#EDEDED"/>
</g>
<defs>
<linearGradient id="paint0_linear_1_1203" x1="33.5406" y1="8.42626" x2="20.1863" y2="61.1044" gradientUnits="userSpaceOnUse">
<stop stop-color="#FF922E"/>
<stop offset="1" stop-color="#FFC239"/>
</linearGradient>
<linearGradient id="paint1_linear_1_1203" x1="26.9668" y1="6.75846" x2="13.6108" y2="59.4366" gradientUnits="userSpaceOnUse">
<stop stop-color="#FF922E"/>
<stop offset="1" stop-color="#FFC239"/>
</linearGradient>
<linearGradient id="paint2_linear_1_1203" x1="28.0582" y1="11.3938" x2="9.72126" y2="51.7242" gradientUnits="userSpaceOnUse">
<stop stop-color="#F9F9F9"/>
<stop offset="1" stop-color="#B5B5B5"/>
</linearGradient>
<linearGradient id="paint3_linear_1_1203" x1="-0.656027" y1="33.0529" x2="42.8879" y2="-9.76148" gradientUnits="userSpaceOnUse">
<stop stop-color="#F9F9F9"/>
<stop offset="1" stop-color="#B5B5B5"/>
</linearGradient>
<linearGradient id="paint4_linear_1_1203" x1="-0.838791" y1="32.8665" x2="42.7051" y2="-9.94603" gradientUnits="userSpaceOnUse">
<stop stop-color="#F9F9F9"/>
<stop offset="1" stop-color="#B5B5B5"/>
</linearGradient>
<linearGradient id="paint5_linear_1_1203" x1="-0.761764" y1="32.9443" x2="42.7822" y2="-9.86825" gradientUnits="userSpaceOnUse">
<stop stop-color="#F9F9F9"/>
<stop offset="1" stop-color="#B5B5B5"/>
</linearGradient>
<linearGradient id="paint6_linear_1_1203" x1="5.8375" y1="39.6576" x2="49.3814" y2="-3.15691" gradientUnits="userSpaceOnUse">
<stop stop-color="#F9F9F9"/>
<stop offset="1" stop-color="#B5B5B5"/>
</linearGradient>
<linearGradient id="paint7_linear_1_1203" x1="5.96292" y1="39.7849" x2="49.5069" y2="-3.02955" gradientUnits="userSpaceOnUse">
<stop stop-color="#F9F9F9"/>
<stop offset="1" stop-color="#B5B5B5"/>
</linearGradient>
<linearGradient id="paint8_linear_1_1203" x1="2.25052" y1="36.0099" x2="45.7945" y2="-6.80458" gradientUnits="userSpaceOnUse">
<stop stop-color="#F9F9F9"/>
<stop offset="1" stop-color="#B5B5B5"/>
</linearGradient>
<clipPath id="clip0_1_1203">
<rect width="159.993" height="39.1094" fill="white" transform="translate(4.0542 4.90796)"/>
</clipPath>
<clipPath id="clip1_1_1203">
<rect width="32" height="27" fill="white" transform="translate(0.0505371 0.907959)"/>
</clipPath>
</defs>
</svg>
