<svg width="49" height="49" viewBox="0 0 49 49" fill="none" xmlns="http://www.w3.org/2000/svg">
<rect x="1.05054" y="0.970459" width="47" height="47" rx="23.5" stroke="#FFC701"/>
<g clip-path="url(#clip0_1_931)">
<path d="M41.8533 37.6291C41.5162 37.5279 41.1234 37.6092 40.7745 38.2022L35.4354 38.2181L34.6817 40.3065C34.5998 40.5328 34.4503 40.7285 34.2534 40.8669C34.0564 41.0052 33.8217 41.0797 33.581 41.0799L34.6123 38.2201H33.8308L33.0792 40.3045C32.9969 40.531 32.847 40.7268 32.6497 40.8651C32.4525 41.0034 32.2174 41.0778 31.9765 41.078L33.0078 38.222H32.2263L31.4827 40.3065C31.4012 40.5332 31.2518 40.7292 31.0548 40.8676C30.8577 41.0061 30.6227 41.0803 30.3819 41.0799L31.4113 38.228L25.6597 38.2439H21.7149C21.7857 37.9755 21.9434 37.7383 22.1634 37.5689C22.3833 37.3996 22.6531 37.3077 22.9306 37.3077H25.9056L30.4671 21.1854H22.4249C20.3266 27.8772 18.2282 35.4316 16.1299 42.2977C15.7749 43.456 16.6336 44.8761 17.8454 44.8939C25.2749 44.9792 32.7043 44.8106 40.1358 44.8939C40.3419 44.8966 40.5431 44.8307 40.7075 44.7064C40.8719 44.5821 40.9904 44.4067 41.0441 44.2077L42.5018 38.8429C42.5718 38.596 42.5433 38.3315 42.4224 38.1052C42.3015 37.8788 42.0975 37.7081 41.8533 37.6291Z" fill="url(#paint0_linear_1_931)"/>
<path d="M35.4995 3.48831V3.47046H27.251C27.0679 3.47045 26.8865 3.50669 26.7173 3.57708C26.5483 3.64747 26.3948 3.75062 26.2658 3.88059C26.1367 4.01055 26.0347 4.16477 25.9655 4.33436C25.8963 4.50394 25.8613 4.68554 25.8627 4.86869H29.9622C29.868 5.12088 29.701 5.33941 29.4825 5.49654C29.2638 5.65367 29.0035 5.74233 28.7345 5.75126L27.1597 5.79688C26.4536 8.10147 25.7463 10.4061 25.0376 12.7107H32.8935L35.1088 4.86869H35.327C35.502 4.87116 35.6717 4.8093 35.8041 4.69486C35.9363 4.58043 36.0221 4.42138 36.0449 4.24791C36.0645 4.07618 36.0196 3.9033 35.9188 3.7629C35.818 3.6225 35.6686 3.52462 35.4995 3.48831Z" fill="url(#paint1_linear_1_931)"/>
<path d="M42.0887 15.3899L42.0708 15.1817C41.6365 10.3266 37.5073 6.64356 32.6303 6.64356H18.5171C17.9446 6.64322 17.3859 6.8191 16.9168 7.14731C16.4477 7.47552 16.091 7.94016 15.8952 8.47812C15.5263 9.3706 15.1561 10.2631 14.7845 11.1556H13.5549C13.1353 11.1561 12.7214 11.2527 12.3449 11.438C11.9685 11.6233 11.6395 11.8924 11.3832 12.2246H18.3723C18.9851 12.2246 19.5921 12.2424 20.1969 12.2543C20.4063 12.2588 20.6121 12.3081 20.8007 12.3988C20.9894 12.4895 21.1564 12.6195 21.2906 12.7802C21.4247 12.9409 21.523 13.1284 21.5786 13.3302C21.6342 13.532 21.6459 13.7433 21.6131 13.9501L19.9649 18.472H19.1855L20.7563 14.1087H20.2683L18.6956 18.472H17.7039L19.2786 14.1087C16.6806 14.0571 14.5783 14.0076 11.9801 13.958C11.6734 13.9524 11.3712 14.0322 11.1071 14.1884C10.8431 14.3446 10.6276 14.5711 10.4847 14.8425C10.3615 15.0777 10.2707 15.3286 10.215 15.5883C10.1945 15.6831 10.1969 15.7814 10.222 15.8752C10.2471 15.9689 10.2942 16.0553 10.3593 16.1272C10.4245 16.1991 10.5058 16.2545 10.5966 16.2887C10.6874 16.323 10.785 16.335 10.8814 16.3241H10.8953C11.0359 16.2993 11.1686 16.2416 11.2827 16.1558C11.3968 16.07 11.4889 15.9584 11.5517 15.8302H16.0737C16.0752 15.9175 16.0595 16.0043 16.0272 16.0854C15.9949 16.1665 15.9469 16.2405 15.8858 16.3028C15.8247 16.3652 15.7518 16.4148 15.6713 16.4488C15.5909 16.4827 15.5045 16.5004 15.4172 16.5006H13.0531C9.78066 26.2306 7.484 33.2376 6.53399 35.4014C5.58399 37.5653 6.39318 38.4697 7.08733 38.8108C7.38743 38.9546 7.71646 39.0279 8.04923 39.025H14.015L17.9816 27.4326H16.8055C16.5004 27.4326 16.2078 27.3113 15.9921 27.0956C15.7764 26.8798 15.6552 26.5874 15.6552 26.2822H22.3172C25.1393 30.2489 27.9616 34.271 30.7838 38.2435C33.497 38.2435 36.2101 38.2019 38.9154 38.2019L29.5007 25.5404L32.6125 25.6257C34.8723 25.6347 37.0609 24.8343 38.7817 23.3693C40.5025 21.9042 41.6419 19.8714 41.9935 17.639C42.1077 16.895 42.1396 16.1408 42.0887 15.3899ZM18.1323 20.0309H17.22L17.6663 18.7973H18.5766L18.1323 20.0309ZM19.3997 20.0309H18.7095L19.1517 18.8052H19.8459L19.3997 20.0309ZM23.4753 20.0309C22.5868 20.0309 21.5026 20.0309 20.2227 20.0309L20.6671 18.8111H23.9176L23.4753 20.0309ZM20.788 18.472L22.325 14.2515C23.6459 14.2694 24.7407 14.2773 25.5499 14.2793L24.0366 18.472H20.788ZM25.0343 20.0388H24.6198H24.2965L24.7388 18.8012H25.4785L25.0343 20.0388ZM24.8578 18.472L26.371 14.2813H27.1186L25.5975 18.472H24.8578ZM29.1397 19.295C28.0131 19.8643 26.958 20.0051 25.8574 20.0328L26.3015 18.8012C27.0005 18.8382 27.7009 18.8382 28.3999 18.8012C29.4411 18.7476 29.9132 18.6406 30.3832 18.3906C30.5805 18.2844 30.766 18.1573 30.9366 18.0119C30.4091 18.5318 29.8027 18.9649 29.1397 19.295ZM31.4423 16.915C31.2439 17.6271 30.52 17.9663 30.1274 18.1487C29.5998 18.3906 29.1357 18.4244 28.2372 18.4759C27.6323 18.5129 27.0256 18.5129 26.4205 18.4759L27.9278 14.2971C28.1263 14.2614 29.7584 14.0155 30.7838 15.1063C30.9227 15.2491 31.6802 16.0444 31.4423 16.9111V16.915Z" fill="url(#paint2_linear_1_931)"/>
<path d="M20.2908 15.4254L20.7627 14.1165H20.2689L19.5193 16.1969L20.2908 15.4254Z" fill="url(#paint3_linear_1_931)"/>
<path d="M21.1301 12.6153C21.3167 12.7789 21.4589 12.9871 21.5431 13.2205C21.6274 13.454 21.6512 13.705 21.6121 13.95L21.5268 14.1801L29.0772 6.64355H27.1177L21.1301 12.6153Z" fill="url(#paint4_linear_1_931)"/>
<path d="M17.9644 17.7503L19.0771 14.6702L10.9455 22.8017C10.5991 23.8383 10.2685 24.8254 9.95386 25.7627L17.9644 17.7503Z" fill="url(#paint5_linear_1_931)"/>
<path d="M38.3168 8.51416L31.1947 15.6362C31.319 15.8214 31.4051 16.0297 31.4477 16.2488C31.4904 16.4678 31.4886 16.6931 31.4426 16.9115C31.2442 17.6235 30.5203 17.9626 30.1276 18.145C29.6258 18.3751 29.1835 18.4168 28.3645 18.4664L28.0134 18.8194L28.4002 18.8015C29.4414 18.748 29.9134 18.6409 30.3835 18.391C30.5809 18.2846 30.7663 18.1576 30.9368 18.0122C30.413 18.531 29.8106 18.9642 29.1518 19.2954C28.4403 19.6544 27.6695 19.8814 26.877 19.9658L20.5483 26.2786H22.3174C22.7247 26.8498 23.1306 27.4223 23.5352 27.9962L40.5915 10.9397C39.9819 10.0037 39.2117 9.18262 38.3168 8.51416Z" fill="url(#paint6_linear_1_931)"/>
<path d="M17.2388 29.5905L7.81616 39.0132C7.89326 39.0211 7.97071 39.0251 8.04821 39.0251H12.5087L14.7954 36.7363L17.2388 29.5905Z" fill="url(#paint7_linear_1_931)"/>
<path d="M32.6313 6.64362H30.6182L22.9943 14.2595C24.0177 14.2714 24.8825 14.2773 25.5509 14.2793L24.0376 18.4721H20.7889L21.9392 15.3146L20.6461 16.6078L19.9659 18.4721H19.1865L19.4166 17.8334L18.4526 18.8012H18.5776L18.1333 20.0309H17.221L9.16085 28.093C7.93914 31.7007 7.04467 34.2473 6.53496 35.4015C5.74164 37.2043 6.16011 38.1127 6.71742 38.5748L17.8596 27.4326H16.8065C16.5014 27.4326 16.2088 27.3114 15.9931 27.0957C15.7774 26.88 15.6562 26.5874 15.6562 26.2823H19.0099L26.1974 19.0948L26.3025 18.8012H26.483L26.8003 18.482C26.6674 18.482 26.5405 18.482 26.4215 18.4641L27.9288 14.2853C28.1132 14.2536 29.456 14.0513 30.4715 14.8128L37.3872 7.89706C35.9391 7.06988 34.2989 6.63763 32.6313 6.64362ZM19.4007 20.023H18.7105L19.1527 18.7973H19.8469L19.4007 20.023ZM23.4763 20.023C22.5878 20.023 21.5036 20.023 20.2237 20.023L20.6679 18.8032H23.9186L23.4763 20.023ZM25.0351 20.0349H24.6207H24.2975L24.7397 18.8012H25.4795L25.0351 20.0349ZM25.5985 18.4681H24.8587L26.3719 14.2774H27.1196L25.5985 18.4681Z" fill="url(#paint8_linear_1_931)"/>
</g>
<defs>
<linearGradient id="paint0_linear_1_931" x1="37.7618" y1="7.24882" x2="23.4204" y2="63.8205" gradientUnits="userSpaceOnUse">
<stop stop-color="#FF922E"/>
<stop offset="1" stop-color="#FFC239"/>
</linearGradient>
<linearGradient id="paint1_linear_1_931" x1="30.7019" y1="5.45773" x2="16.3587" y2="62.0294" gradientUnits="userSpaceOnUse">
<stop stop-color="#FF922E"/>
<stop offset="1" stop-color="#FFC239"/>
</linearGradient>
<linearGradient id="paint2_linear_1_931" x1="31.8727" y1="10.4356" x2="12.1804" y2="53.747" gradientUnits="userSpaceOnUse">
<stop stop-color="#F9F9F9"/>
<stop offset="1" stop-color="#B5B5B5"/>
</linearGradient>
<linearGradient id="paint3_linear_1_931" x1="1.03883" y1="33.6956" x2="47.8011" y2="-12.2833" gradientUnits="userSpaceOnUse">
<stop stop-color="#F9F9F9"/>
<stop offset="1" stop-color="#B5B5B5"/>
</linearGradient>
<linearGradient id="paint4_linear_1_931" x1="0.838959" y1="33.4955" x2="47.6013" y2="-12.4814" gradientUnits="userSpaceOnUse">
<stop stop-color="#F9F9F9"/>
<stop offset="1" stop-color="#B5B5B5"/>
</linearGradient>
<linearGradient id="paint5_linear_1_931" x1="0.923883" y1="33.5789" x2="47.6862" y2="-12.3979" gradientUnits="userSpaceOnUse">
<stop stop-color="#F9F9F9"/>
<stop offset="1" stop-color="#B5B5B5"/>
</linearGradient>
<linearGradient id="paint6_linear_1_931" x1="8.00986" y1="40.7885" x2="54.7722" y2="-5.19045" gradientUnits="userSpaceOnUse">
<stop stop-color="#F9F9F9"/>
<stop offset="1" stop-color="#B5B5B5"/>
</linearGradient>
<linearGradient id="paint7_linear_1_931" x1="8.14341" y1="40.9251" x2="54.9057" y2="-5.05382" gradientUnits="userSpaceOnUse">
<stop stop-color="#F9F9F9"/>
<stop offset="1" stop-color="#B5B5B5"/>
</linearGradient>
<linearGradient id="paint8_linear_1_931" x1="4.15896" y1="36.8711" x2="50.9213" y2="-9.10777" gradientUnits="userSpaceOnUse">
<stop stop-color="#F9F9F9"/>
<stop offset="1" stop-color="#B5B5B5"/>
</linearGradient>
<clipPath id="clip0_1_931">
<rect width="36.9091" height="42" fill="white" transform="translate(6.09595 3.47046)"/>
</clipPath>
</defs>
</svg>
