<svg width="21" height="21" viewBox="0 0 21 21" fill="none" xmlns="http://www.w3.org/2000/svg">
<g clip-path="url(#clip0_1_946)">
<path d="M7.57952 1.09546H2.2172C1.64191 1.09546 1.17554 1.56183 1.17554 2.13713V7.49944C1.17554 8.07474 1.64191 8.54111 2.2172 8.54111H7.57952C8.15482 8.54111 8.62119 8.07474 8.62119 7.49944V2.13713C8.62119 1.56183 8.15482 1.09546 7.57952 1.09546Z" stroke="#3B436B" stroke-width="1.25"/>
<path d="M7.57952 12.3998H2.2172C1.64191 12.3998 1.17554 12.8662 1.17554 13.4414V18.8038C1.17554 19.3791 1.64191 19.8454 2.2172 19.8454H7.57952C8.15482 19.8454 8.62119 19.3791 8.62119 18.8038V13.4414C8.62119 12.8662 8.15482 12.3998 7.57952 12.3998Z" stroke="#2D3660" stroke-width="1.25"/>
<path d="M18.884 1.09546H13.5216C12.9464 1.09546 12.48 1.56183 12.48 2.13713V7.49944C12.48 8.07474 12.9464 8.54111 13.5216 8.54111H18.884C19.4593 8.54111 19.9256 8.07474 19.9256 7.49944V2.13713C19.9256 1.56183 19.4593 1.09546 18.884 1.09546Z" stroke="#4D5B97" stroke-width="1.25"/>
<path d="M18.884 12.3998H13.5216C12.9464 12.3998 12.48 12.8662 12.48 13.4414V18.8038C12.48 19.3791 12.9464 19.8454 13.5216 19.8454H18.884C19.4593 19.8454 19.9256 19.3791 19.9256 18.8038V13.4414C19.9256 12.8662 19.4593 12.3998 18.884 12.3998Z" stroke="#3B436B" stroke-width="1.25"/>
</g>
<defs>
<clipPath id="clip0_1_946">
<rect width="20" height="20" fill="white" transform="translate(0.550537 0.470459)"/>
</clipPath>
</defs>
</svg>
