<svg width="31" height="34" viewBox="0 0 31 34" fill="none" xmlns="http://www.w3.org/2000/svg">
<path d="M15.5966 23.6751C19.4121 23.6751 22.505 20.5821 22.505 16.7667C22.505 12.9513 19.4121 9.85828 15.5966 9.85828C11.7812 9.85828 8.68823 12.9513 8.68823 16.7667C8.68823 20.5821 11.7812 23.6751 15.5966 23.6751Z" stroke="#3B436B" stroke-width="1.32353"/>
<path d="M15.5958 19.2465C17.0633 19.2465 18.2529 18.0966 18.2529 16.678C18.2529 15.2595 17.0633 14.1095 15.5958 14.1095C14.1283 14.1095 12.9387 15.2595 12.9387 16.678C12.9387 18.0966 14.1283 19.2465 15.5958 19.2465Z" stroke="#4D5B97" stroke-width="1.32353"/>
<path d="M14.3479 7.26499L15.5505 3.05579L16.7531 7.26499H14.3479Z" stroke="#4D5B97" stroke-width="1.32353"/>
<path d="M16.7534 26.2682L15.5507 30.4774L14.3481 26.2682H16.7534Z" stroke="#4D5B97" stroke-width="1.32353"/>
<path d="M6.72071 13.0572L3.67676 9.91113L7.92334 10.9743L6.72071 13.0572Z" stroke="#4D5B97" stroke-width="1.32353"/>
<path d="M24.3805 20.476L27.4246 23.6221L23.178 22.559L24.3805 20.476Z" stroke="#4D5B97" stroke-width="1.32353"/>
<path d="M23.1777 10.9743L27.4243 9.91125L24.3804 13.0574L23.1777 10.9743Z" stroke="#4D5B97" stroke-width="1.32353"/>
<path d="M7.92336 22.5589L3.67676 23.6219L6.72073 20.4758L7.92336 22.5589Z" stroke="#4D5B97" stroke-width="1.32353"/>
</svg>
