<svg width="27" height="27" viewBox="0 0 27 27" fill="none" xmlns="http://www.w3.org/2000/svg">
<path d="M13.5502 10.3638C16.0578 10.3638 18.0907 8.33102 18.0907 5.8234C18.0907 3.31579 16.0578 1.28296 13.5502 1.28296C11.0426 1.28296 9.00977 3.31579 9.00977 5.8234C9.00977 8.33102 11.0426 10.3638 13.5502 10.3638Z" stroke="#2D3660" stroke-width="1.625"/>
<path d="M5.90348 25.658C8.4111 25.658 10.4439 23.6252 10.4439 21.1176C10.4439 18.61 8.4111 16.5771 5.90348 16.5771C3.39586 16.5771 1.36304 18.61 1.36304 21.1176C1.36304 23.6252 3.39586 25.658 5.90348 25.658Z" stroke="#4D5B97" stroke-width="1.625"/>
<path d="M21.1972 25.658C23.7048 25.658 25.7376 23.6252 25.7376 21.1176C25.7376 18.61 23.7048 16.5771 21.1972 16.5771C18.6896 16.5771 16.6567 18.61 16.6567 21.1176C16.6567 23.6252 18.6896 25.658 21.1972 25.658Z" stroke="#3B436B" stroke-width="1.625"/>
</svg>
