<svg width="21" height="21" viewBox="0 0 21 21" fill="none" xmlns="http://www.w3.org/2000/svg">
<path d="M18.9351 6.60907C17.4846 9.8843 16.0341 13.1128 14.4022 16.3881C14.0681 17.2608 13.4873 18.0097 12.7356 18.5373C11.9838 19.065 11.0958 19.3472 10.1867 19.3472C9.27747 19.3472 8.38916 19.065 7.63745 18.5373C6.88565 18.0097 6.30493 17.2608 5.97078 16.3881L1.16589 6.60907L10.0505 1.578L18.9351 6.60907Z" stroke="#4D5B97" stroke-width="1.11058" stroke-linecap="round" stroke-linejoin="round"/>
<path d="M15.0722 8.05179C14.2523 10.1615 13.4324 12.2411 12.5101 14.3506C12.3212 14.9128 11.993 15.3952 11.5681 15.7351C11.1432 16.0749 10.6412 16.2568 10.1274 16.2568C9.61353 16.2568 9.1114 16.0749 8.68649 15.7351C8.26158 15.3952 7.93337 14.9128 7.7445 14.3506L5.02869 8.05179L10.1274 4.66809L15.0722 8.05179Z" stroke="#4D5B97" stroke-width="1.11058" stroke-linecap="round" stroke-linejoin="round"/>
</svg>
