<svg width="26" height="26" viewBox="0 0 26 26" fill="none" xmlns="http://www.w3.org/2000/svg">
<path d="M15.0705 18.5406L3.19055 6.83058C1.84461 5.51213 1.07523 3.71453 1.05054 1.83058C2.93507 1.80328 4.75394 2.5222 6.11054 3.83057L18.0005 15.5406L15.0705 18.5406Z" stroke="#4D5B97" stroke-width="1.5" stroke-linecap="round" stroke-linejoin="round"/>
<path d="M20.0999 18.1501L23.4499 21.4401C23.6174 21.6065 23.7503 21.8043 23.841 22.0223C23.9317 22.2402 23.9784 22.474 23.9784 22.7101C23.9784 22.9462 23.9317 23.1799 23.841 23.3979C23.7503 23.6159 23.6174 23.8137 23.4499 23.9801C23.1151 24.3093 22.6644 24.4938 22.1949 24.4938C21.7254 24.4938 21.2747 24.3093 20.9399 23.9801L17.5398 20.6701" stroke="#4D5B97" stroke-width="1.5" stroke-linecap="round" stroke-linejoin="round"/>
<path d="M14.3201 23.6107L23.0501 14.8807" stroke="#3B436B" stroke-width="1.5" stroke-linecap="round" stroke-linejoin="round"/>
<path d="M10.1902 18.381L7.19019 15.451" stroke="#2D3660" stroke-width="1.5" stroke-linecap="round" stroke-linejoin="round"/>
<path d="M14.7507 7.78046L18.8608 3.60046C20.1815 2.25911 21.9785 1.49359 23.8608 1.47046C23.887 3.35479 23.1682 5.17327 21.8608 6.53046L17.7907 10.7905" stroke="#2D3660" stroke-width="1.5" stroke-linecap="round" stroke-linejoin="round"/>
<path d="M7.55066 20.4813L4.25067 23.8313C4.08585 23.9997 3.88904 24.1335 3.67181 24.2249C3.45459 24.3163 3.22131 24.3633 2.98566 24.3633C2.75 24.3633 2.51672 24.3163 2.2995 24.2249C2.08227 24.1335 1.88553 23.9997 1.7207 23.8313C1.38973 23.4995 1.20386 23.0499 1.20386 22.5813C1.20386 22.1126 1.38973 21.6631 1.7207 21.3313L5.02069 17.9313" stroke="#3B436B" stroke-width="1.5" stroke-linecap="round" stroke-linejoin="round"/>
<path d="M2.09058 14.701L10.8105 23.421" stroke="#2D3660" stroke-width="1.5" stroke-linecap="round" stroke-linejoin="round"/>
</svg>
