<svg width="205" height="45" viewBox="0 0 205 45" fill="none" xmlns="http://www.w3.org/2000/svg">
<path d="M5.78972 27.27C0.343682 25.4512 -1.28058 19.9947 2.73229 16.6481L2.82784 16.5753C5.40754 14.4655 8.75159 13.1559 12.0957 11.8464C19.9303 8.79076 28.4338 5.58963 37.2239 6.60817C43.4342 7.3357 49.1669 10.1003 55.3773 10.3913C63.1164 10.8278 70.3778 7.48122 78.1169 7.04469C86.5248 6.53542 94.8372 9.44553 103.341 8.93626C115.761 8.20873 126.558 0.278672 138.883 1.29721C147.291 2.02475 154.457 6.82644 162.865 7.26296C169.075 7.55397 175.954 5.51688 181.209 8.06323C185.222 10.0276 187.133 14.2472 191.815 14.9747C195.254 15.484 199.267 13.8107 202.134 15.6295C203.662 16.6481 204.14 18.1759 203.662 19.7037C202.898 22.3228 200.127 23.9961 197.547 25.5967C192.293 28.725 185.7 32.0717 179.49 30.3256C175.763 29.3071 172.515 26.5424 168.693 27.3427C167.069 27.7065 165.731 28.5795 164.202 29.1616C161.241 30.2528 157.801 29.8163 154.552 29.8163C151.304 29.8163 147.482 30.6894 146.431 33.0175C145.571 34.8363 146.718 36.8734 147.387 38.7649C148.055 40.7293 147.578 43.4211 144.902 43.9304C143.278 44.2214 141.654 43.5666 140.794 42.4753C138.597 39.7835 140.316 36.5824 139.074 33.8177C138.023 31.5624 135.061 30.0346 132.004 29.7436C130.189 29.5981 128.373 29.8163 126.558 30.3984C123.692 31.3441 120.539 31.2714 117.577 30.5439C116.335 30.2528 115.188 30.1073 113.851 30.0346C110.698 29.9618 107.354 31.2714 106.494 33.5267C105.825 35.2 106.303 37.5281 104.201 38.2557C103.15 38.6194 102.003 38.4012 101.143 37.8919C99.8055 37.0189 99.2322 35.7821 98.5634 34.5453C96.4614 30.6166 91.2065 27.0517 85.856 28.143C80.8877 29.1616 77.3525 33.745 72.3842 32.9447C68.3714 32.2899 66.4605 28.434 62.4476 27.7792C57.2882 26.979 53.2753 32.0717 48.0204 31.7807C46.1095 31.6352 44.4852 30.8349 42.6699 30.3256C40.9501 29.7436 38.7526 29.5253 37.2239 30.4711C35.6951 31.4169 35.6951 33.0902 36.0773 34.5453C36.3639 35.3456 36.6506 36.1458 36.9372 36.9461C37.4149 38.6194 36.7461 40.4383 35.1219 41.6751C31.4912 44.4397 26.1407 42.1116 25.663 39.0559C25.3763 37.6009 26.1407 36.0731 26.6184 34.618C27.0961 33.163 27.0961 31.4169 25.7585 30.3256C24.4209 29.2343 22.3189 29.1616 20.3125 29.0888C15.6308 28.9433 10.758 28.8705 5.78972 27.27Z" fill="#D9F1FF"/>
<path d="M189.426 22.3968C193.343 21.2328 196.974 19.5595 200.891 18.2499C201.847 17.9589 202.802 17.6679 203.758 17.4496C203.471 16.7949 202.993 16.1401 202.325 15.7036C199.458 13.812 195.445 15.5581 192.006 15.0488C187.324 14.3213 185.413 10.1016 181.4 8.13723C176.145 5.59088 169.266 7.62796 163.056 7.33695C154.648 6.90043 147.482 2.09874 139.074 1.3712C126.749 0.352663 115.952 8.20998 103.532 9.01026C95.0282 9.37403 86.7158 6.46391 78.2124 6.97318C70.4733 7.4097 63.2119 10.7563 55.4728 10.3198C49.1669 9.95605 43.5297 7.19144 37.3193 6.53666C28.6248 5.59088 20.0258 8.71925 12.1911 11.7749C8.84709 13.0845 5.40748 14.394 2.92333 16.5038L2.82778 16.5766C2.15897 17.0859 1.68125 17.7406 1.29907 18.3227C3.40105 20.869 7.22283 22.4696 11.1402 22.6151C16.1085 22.7606 20.9812 20.578 25.854 21.2328C30.7268 21.8876 34.453 25.3069 39.3258 25.598C44.7718 25.9617 49.9312 22.4696 55.1862 23.5609C57.5748 24.0701 59.7723 25.5252 62.2564 25.1614C64.0718 24.8704 65.6005 23.6336 67.4158 23.8519C69.5178 24.1429 70.2822 26.2527 72.1931 26.9075C74.3906 27.635 76.6837 26.2527 78.6901 25.3069C84.7094 22.4696 93.2129 23.2699 97.9901 27.1985C98.7544 27.7805 99.6143 28.2898 100.665 28.5808C103.627 29.4539 104.678 27.8533 106.207 26.762C109.073 24.7249 113.468 24.7249 117.481 24.8704C122.545 25.0887 127.609 25.3069 132.673 25.9617C136.303 26.471 139.839 27.1985 143.565 27.1258C147.195 27.053 151.113 25.9617 153.024 24.1429C154.266 22.9061 156.654 22.9061 158.661 23.1971C160.667 23.5609 162.674 24.1429 164.585 23.7791C166.782 23.3426 168.406 21.8148 170.604 21.5238C172.897 21.2328 175.094 22.3241 177.292 22.9789C181.018 24.0701 185.509 23.4881 189.426 22.3968Z" fill="white"/>
<path opacity="0.5" d="M0.917725 23.1205C1.68208 24.8666 3.30634 26.4672 5.79049 27.2675C10.6633 28.868 15.6316 28.9408 20.5999 29.0863C22.5108 29.0863 24.7083 29.2318 26.0459 30.3231C27.3835 31.4144 27.288 33.1604 26.9058 34.6155C26.4281 36.0706 25.7593 37.5256 25.9504 39.0534C26.5236 42.109 31.7786 44.3644 35.4093 41.6725C37.0335 40.4357 37.7023 38.6897 37.2246 36.9436C36.938 36.1433 36.6514 35.343 36.3647 34.5427C35.9825 33.0877 35.9825 31.4144 37.5113 30.4686C38.9444 29.5228 41.1419 29.8138 42.9573 30.3231C44.6771 30.9051 46.3969 31.7054 48.3078 31.7781C53.5627 32.0691 57.5756 26.9764 62.735 27.7767C66.7479 28.4315 68.6588 32.2874 72.6716 32.9422C77.6399 33.7425 81.2706 29.159 86.1434 28.1405C91.4939 27.0492 96.7488 30.6868 98.8508 34.5427C99.5196 35.7068 99.9973 37.0163 101.431 37.8894C102.29 38.3986 103.532 38.6169 104.488 38.2531C106.59 37.5256 106.112 35.1975 106.781 33.5242C107.641 31.2689 111.08 30.0321 114.138 30.0321C115.38 30.0321 116.622 30.2503 117.864 30.5413C120.826 31.1961 123.979 31.2689 126.845 30.3958C128.661 29.8138 130.476 29.5955 132.291 29.741C135.349 30.0321 138.406 31.5599 139.362 33.8152C140.604 36.5798 138.884 39.781 141.081 42.4728C141.941 43.5641 143.566 44.1461 145.19 43.9279C147.961 43.4186 148.343 40.7995 147.674 38.7624C147.005 36.8708 145.859 34.9065 146.719 33.0149C147.77 30.6868 151.591 29.8866 154.84 29.8138C158.088 29.8138 161.528 30.2503 164.49 29.159C166.019 28.577 167.261 27.6312 168.98 27.3402C172.802 26.6127 176.051 29.3045 179.777 30.3231C186.083 32.0691 192.58 28.7225 197.835 25.5941C200.032 24.2846 202.325 22.8295 203.472 20.8652C201.179 21.6655 199.173 23.0478 196.688 23.4843C194.3 23.9208 191.624 23.4843 189.331 24.1391C185.605 25.1576 182.93 28.9408 178.439 26.6127C177.866 26.3217 177.388 25.9579 176.911 25.5941C176.911 25.5941 176.911 25.5941 176.911 25.5214C174.904 23.9208 171.751 23.4843 169.267 24.5756C163.917 26.9037 156.846 26.9037 150.445 28.0677C148.725 28.3587 146.91 28.7953 145.572 29.741C144.234 30.6868 143.47 32.2146 144.139 33.4514C144.426 33.9607 144.903 34.47 144.999 34.9793C144.999 35.5613 144.139 36.1433 143.566 35.7068C143.375 35.5613 143.279 35.343 143.279 35.052C142.419 31.2689 137.642 28.577 132.769 27.704C129.234 27.1219 123.119 27.5585 119.871 27.8495C118.533 27.995 117.291 28.0677 115.953 28.0677C112.609 28.1405 105.73 28.6498 103.819 31.2689C103.437 31.7781 103.055 32.3602 102.29 32.4329C101.335 32.5784 100.666 31.8509 100.093 31.1961C96.2711 26.8309 88.7231 26.0307 81.9394 26.9037C79.8374 27.3402 78.4043 27.995 76.9711 28.868C75.6335 29.741 73.8182 30.4686 72.1939 30.1048C71.2384 29.8866 70.4741 29.2318 69.7097 28.7225C65.9835 26.3217 60.633 25.8851 55.7602 26.2489C50.2187 26.6127 44.7726 27.8495 39.2311 27.413C38.3712 27.3402 37.6068 27.3402 36.7469 27.4857C32.0652 28.4315 32.8296 30.9778 32.9251 33.2332C33.0207 34.6882 32.0652 37.8894 30.6321 36.9436C28.8167 35.7795 31.492 33.3059 31.2053 31.4871C31.0142 29.6683 29.9632 27.7767 28.0524 26.6854C25.5682 25.2304 22.1286 25.3031 18.9756 25.3759C14.6761 25.4486 10.2811 25.5214 6.07713 24.7211C4.35733 24.2846 2.63752 23.7753 0.917725 23.1205Z" fill="#B4DCFF"/>
</svg>
