<svg width="153" height="72" viewBox="0 0 153 72" fill="none" xmlns="http://www.w3.org/2000/svg">
<path d="M2.73796 21.5181C2.73796 21.5181 4.0166 1.61914 26.7925 8.73161C38.7798 12.4876 50.6872 16.2437 63.3138 13.7663C76.34 11.209 88.4073 5.21533 101.913 5.21533C112.222 5.21533 124.689 7.37305 131.002 16.4834C136.596 24.5549 133.719 35.1836 131.641 43.8944C131.402 45.0132 129.564 53.4842 127.086 51.0068C122.132 46.0521 125.808 35.1836 121.252 30.6284C117.576 26.9523 116.218 29.9092 115.019 33.5853C113.341 38.54 109.105 41.1773 107.107 34.1447C105.509 28.4707 101.593 25.5938 95.6796 25.2741C85.85 24.7946 87.4483 33.1058 86.0098 39.8986C85.3705 42.8555 83.2927 47.4107 79.6965 47.2508C73.8627 47.0111 78.0982 36.5422 76.8195 33.3455C75.2212 29.4297 70.4263 31.7472 67.5493 32.6263C62.9942 33.9849 58.1193 34.2246 53.4842 33.3455C50.0479 32.7062 44.6136 29.5096 41.5768 32.7861C40.2982 34.1447 39.8187 36.1426 39.579 37.9806C39.1794 41.1773 39.0995 44.3739 39.0195 47.5705C38.8597 53.5641 31.2677 54.0436 30.5485 47.9701C29.6694 41.1773 31.5874 25.9134 20.1595 27.5916C15.7642 28.231 12.0081 33.1058 7.45296 31.8272C3.05762 30.5485 2.49821 25.1942 2.73796 21.5181Z" fill="white"/>
<path d="M76.7391 24.9523C75.1408 21.0365 70.3459 23.354 67.4689 24.2331C62.9137 25.5916 58.0389 25.8314 53.4038 24.9523C49.9674 24.313 44.5332 21.1164 41.4964 24.3929C40.2178 25.7515 39.7383 27.7494 39.4985 29.5874C39.0989 32.784 39.019 35.9806 38.9391 39.1773C38.7793 45.1709 31.1873 45.6504 30.4681 39.5768C29.589 32.784 31.507 17.5202 20.0791 19.1984C15.6837 19.8377 11.9277 24.7126 7.37253 23.4339C5.05498 22.7946 3.85625 20.9565 3.29684 18.7988C2.89726 20.3971 2.81735 21.516 2.81735 21.516C2.5776 25.1921 3.13701 30.5464 7.37253 31.7451C11.9277 33.0238 15.7636 28.1489 20.0791 27.5096C31.507 25.8314 29.589 41.0952 30.4681 47.888C31.2672 53.8817 38.7793 53.4821 38.9391 47.4885C39.019 44.2119 39.1789 41.0952 39.4985 37.8986C39.7383 35.9806 40.2178 34.0627 41.4964 32.7041C44.5332 29.4276 49.9674 32.6242 53.4038 33.2635C58.0389 34.1426 62.9137 33.9028 67.4689 32.5443C70.186 31.7451 74.6613 29.5874 76.4993 32.784C76.6592 29.8272 77.3784 26.5506 76.7391 24.9523Z" fill="#D9F1FF"/>
<path d="M131.641 35.5815C131.402 36.7003 129.564 45.1714 127.086 42.694C122.131 37.7392 125.808 26.8707 121.252 22.3156C117.576 18.6395 116.218 21.5963 115.019 25.2724C113.341 30.2272 109.105 32.8644 107.107 25.8318C105.509 20.1579 101.593 17.2809 95.6794 16.9612C85.8498 16.4817 87.4482 24.7929 86.0097 31.5858C85.3704 34.5426 83.2926 39.0978 79.6964 38.938C78.2579 38.8581 77.3788 38.1388 76.9792 37.0999C76.5797 41.4153 75.4608 47.0893 79.6964 47.2492C83.3725 47.409 85.3704 42.8538 86.0097 39.897C87.5281 33.1041 85.8498 24.7929 95.6794 25.2724C101.673 25.5921 105.509 28.3891 107.107 34.143C109.105 41.1756 113.341 38.4585 115.019 33.5836C116.298 29.9874 117.576 27.0306 121.252 30.6268C125.808 35.1819 122.131 46.0504 127.086 51.0052C129.564 53.4826 131.402 45.0915 131.641 43.8927C133.08 37.7392 134.918 30.6268 133.959 24.1536C133.479 28.0695 132.52 31.9853 131.641 35.5815Z" fill="#D9F1FF"/>
<path d="M76.9793 34.2234C77.0592 33.0247 77.0592 31.9059 76.7396 31.1866C75.1413 27.2708 70.3463 29.5883 67.4694 30.4674C62.9142 31.8259 58.0394 32.0657 53.4043 31.1866C49.9679 30.5473 44.5337 27.3507 41.4969 30.6272C40.2182 31.9858 39.7388 33.9837 39.499 35.8217C39.0994 39.0183 39.0195 42.2149 38.9396 45.4116C38.7798 51.4052 31.1878 51.8847 30.4686 45.8111C29.5895 39.0183 31.5075 23.7545 20.0796 25.4327C15.6842 26.072 11.8483 30.9469 7.2931 29.6682C3.93666 28.7092 2.81784 25.113 2.65801 21.8365C2.49818 25.5126 3.1375 30.5473 7.2931 31.746C11.8483 33.0247 15.6842 28.1498 19.9996 27.5105C31.4275 25.8323 29.5096 41.0961 30.3887 47.8889C31.1878 53.8826 38.6999 53.483 38.8597 47.4894C38.9396 44.2128 39.0994 41.0961 39.4191 37.8995C39.6588 35.9815 40.1383 34.0636 41.417 32.705C44.4538 29.4285 49.888 32.6251 53.3244 33.2644C57.9595 34.1435 62.8343 33.9037 67.3895 32.5452C70.2664 31.6661 75.0614 29.3486 76.6597 33.2644C76.8195 33.5841 76.8994 33.9037 76.9793 34.2234Z" fill="#B4DCFF"/>
<path d="M131.641 41.8158C131.401 42.9347 129.563 51.4057 127.086 48.9283C122.131 43.9735 125.807 33.1051 121.252 28.5499C117.576 24.8738 116.217 27.8306 115.019 31.5068C113.34 36.4615 109.105 39.0987 107.107 32.0662C105.509 26.3922 101.593 23.5152 95.6792 23.1956C85.8496 22.7161 87.4479 31.0273 86.0094 37.8201C85.3701 40.7769 83.2923 45.3321 79.6961 45.1723C77.4584 45.0924 76.7392 43.4941 76.5794 41.3363C76.4195 44.3731 76.8191 47.0903 79.6961 47.2501C83.3722 47.4099 85.3701 42.8547 86.0094 39.8979C87.5278 33.1051 85.8496 24.7939 95.6792 25.2734C101.673 25.593 105.509 28.39 107.107 34.144C109.105 41.1765 113.34 38.4594 115.019 33.5846C116.297 29.9884 117.576 27.0315 121.252 30.6277C125.807 35.1829 122.131 46.0514 127.086 51.0061C129.563 53.4835 131.401 45.0924 131.641 43.8936C132.84 38.6192 134.438 32.7055 134.198 27.0315C134.039 32.0662 132.76 37.1807 131.641 41.8158Z" fill="#B4DCFF"/>
<path d="M119.414 11.2889C119.174 12.4077 116.058 12.7274 112.541 11.9282C109.025 11.1291 106.388 9.5308 106.628 8.41198C106.867 7.29317 109.984 6.9735 113.5 7.77266C117.017 8.57181 119.654 10.1701 119.414 11.2889Z" fill="#D9F1FF"/>
<path d="M104.869 8.25228C104.869 9.05144 102.871 9.85059 100.314 9.85059C97.7568 9.93051 95.679 9.29118 95.679 8.49203C95.679 7.69288 97.6768 6.89372 100.234 6.89372C102.791 6.81381 104.869 7.45313 104.869 8.25228Z" fill="#D9F1FF"/>
<path d="M21.7575 9.7695C21.7575 10.5686 19.7596 11.3678 17.2023 11.3678C14.645 11.3678 12.4873 10.8883 12.4873 10.0092C12.4873 9.21009 14.4852 8.41093 17.0425 8.41093C19.5998 8.33102 21.7575 8.97034 21.7575 9.7695Z" fill="#D9F1FF"/>
<path fill-rule="evenodd" clip-rule="evenodd" d="M60.5167 40.6172C60.5167 41.736 59.5577 42.695 58.4389 42.695C57.3201 42.695 56.3611 41.736 56.3611 40.6172C56.3611 39.4984 57.3201 38.5394 58.4389 38.5394C59.5577 38.5394 60.5167 39.4185 60.5167 40.6172Z" fill="white"/>
<path fill-rule="evenodd" clip-rule="evenodd" d="M109.584 55.7215C109.584 56.8404 108.625 57.7993 107.507 57.7993C106.388 57.7993 105.429 56.8404 105.429 55.7215C105.429 54.6027 106.388 53.6437 107.507 53.6437C108.625 53.6437 109.584 54.6027 109.584 55.7215Z" fill="white"/>
<path fill-rule="evenodd" clip-rule="evenodd" d="M93.1217 0.5C93.1217 1.05941 92.6422 1.5389 92.0828 1.5389C91.5234 1.5389 91.0439 1.05941 91.0439 0.5" fill="white"/>
<path fill-rule="evenodd" clip-rule="evenodd" d="M2.5778 19.1999C2.5778 19.7593 2.09831 20.2388 1.5389 20.2388C0.979492 20.2388 0.5 19.7593 0.5 19.1999C0.5 18.6405 0.979492 18.161 1.5389 18.161C2.09831 18.161 2.5778 18.6405 2.5778 19.1999Z" fill="white"/>
<path fill-rule="evenodd" clip-rule="evenodd" d="M151.7 22.5573C151.7 23.1167 151.22 23.5962 150.661 23.5962C150.101 23.5962 149.622 23.1167 149.622 22.5573C149.622 21.9979 150.101 21.5184 150.661 21.5184C151.22 21.5184 151.7 21.9979 151.7 22.5573Z" fill="white"/>
<path fill-rule="evenodd" clip-rule="evenodd" d="M14.8852 49.7285C14.8852 50.2879 14.4057 50.7674 13.8463 50.7674C13.2869 50.7674 12.8074 50.2879 12.8074 49.7285C12.8074 49.1691 13.2869 48.6896 13.8463 48.6896C14.4057 48.6896 14.8852 49.1691 14.8852 49.7285Z" fill="white"/>
<path fill-rule="evenodd" clip-rule="evenodd" d="M120.773 21.2774C120.773 21.8368 120.293 22.3163 119.734 22.3163C119.175 22.3163 118.695 21.8368 118.695 21.2774C118.695 20.718 119.175 20.2385 119.734 20.2385C120.293 20.2385 120.773 20.718 120.773 21.2774Z" fill="white"/>
<path fill-rule="evenodd" clip-rule="evenodd" d="M28.9499 69.5466C28.9499 70.106 28.4704 70.5855 27.911 70.5855C27.3516 70.5855 26.8721 70.106 26.8721 69.5466C26.8721 68.9872 27.3516 68.5077 27.911 68.5077C28.4704 68.5077 28.9499 68.9872 28.9499 69.5466Z" fill="white"/>
</svg>
