<svg width="59" height="36" viewBox="0 0 59 36" fill="none" xmlns="http://www.w3.org/2000/svg">
<path d="M2.07495 21.1783C0.740621 15.0904 -1.42765 8.41882 3.99304 3.5819C8.49638 -0.504474 15.168 0.829852 20.3385 2.58116C24.7584 4.08227 29.2618 4.91622 33.9319 5.08301C39.853 5.2498 46.7748 -0.838055 52.3622 1.99739C56.7822 4.24906 58.1165 9.75313 57.7829 14.3398C56.949 25.765 53.6966 38.9414 51.1113 34.6049C48.5261 30.2683 52.6124 20.0107 48.7763 18.5096C44.9401 17.0919 41.2707 21.6786 35.0994 21.9288C28.8448 22.179 27.5939 15.841 20.3385 18.176C14.1672 20.1775 15.7518 29.0174 13.7503 33.5207C13.1665 34.9385 11.6654 36.0226 10.1643 35.8558C6.24471 35.272 4.91038 30.9355 3.90964 27.5997C3.32587 26.0986 2.65871 23.7635 2.07495 21.1783Z" fill="white"/>
<path d="M48.7761 11.9221C44.9399 10.5044 41.2705 15.0911 35.0993 15.3413C28.8447 15.5915 27.5937 9.25345 20.3384 11.5885C14.1671 13.59 15.7516 22.4299 13.7501 26.9333C13.1664 28.351 11.6653 29.4351 10.1641 29.2683C6.24457 28.6846 4.91024 24.348 3.9095 21.0122C3.40913 19.3443 2.74197 17.0926 2.1582 14.5074C1.74122 12.5893 1.24085 10.5878 0.907273 8.66968C-0.0100741 12.5893 1.24085 17.0092 2.1582 21.0956C2.74197 23.6808 3.40913 26.0159 3.9095 27.6004C4.91024 30.8528 6.24457 35.1894 10.1641 35.8565C11.6653 36.1067 13.083 34.9392 13.7501 33.5215C15.7516 29.0181 14.2505 20.1783 20.3384 18.1768C27.5937 15.8417 28.9281 22.1797 35.0993 21.9295C41.2705 21.6794 44.9399 17.0092 48.7761 18.5103C49.6101 18.8439 50.1104 19.5945 50.3606 20.5952C50.5274 16.6757 51.0278 12.8395 48.7761 11.9221Z" fill="#D9F1FF"/>
<path d="M51.1111 28.0172C50.7775 27.4334 50.5273 26.6829 50.3605 25.9323C50.1103 29.1013 49.8602 32.6039 51.1111 34.6054C53.6963 38.9419 56.8653 25.7655 57.7827 14.3404C57.8661 12.9226 57.8661 11.4215 57.6159 10.0038C56.4484 20.8452 53.5295 32.1035 51.1111 28.0172Z" fill="#D9F1FF"/>
<path d="M48.7757 16.0914C44.9395 14.6737 41.2701 19.2604 35.0989 19.5106C28.9276 19.7608 27.5933 13.4228 20.3379 15.7578C14.1667 17.7593 15.7512 26.5992 13.7497 31.1026C13.1659 32.5203 11.6648 33.6044 10.1637 33.4376C6.24413 32.8539 4.90981 28.5173 3.90907 25.1815C3.4087 23.5136 2.74154 21.2619 2.15777 18.6767C1.574 16.008 0.823447 13.256 0.573262 10.5039C0.323076 13.9232 1.32382 17.6759 2.15777 21.0951C2.74154 23.6804 3.4087 26.0155 3.90907 27.6C4.90981 30.8524 6.24413 35.1889 10.1637 35.8561C11.6648 36.1063 13.0825 34.9387 13.7497 33.521C15.7512 29.0177 14.2501 20.1778 20.3379 18.1763C27.5933 15.8412 28.9276 22.1793 35.0989 21.9291C41.2701 21.6789 44.9395 17.0088 48.7757 18.5099C49.9432 18.9269 50.3602 20.1778 50.527 21.8457C50.6104 19.0937 50.4436 16.7586 48.7757 16.0914Z" fill="#B4DCFF"/>
<path d="M57.7821 11.8386C56.9482 23.2637 53.6958 36.4402 51.1105 32.1036C50.5267 31.1863 50.2765 29.9353 50.1932 28.5176C50.1098 30.8527 50.1932 33.021 51.1105 34.5221C53.6958 38.8586 56.8648 25.6822 57.7821 14.257C57.8655 13.4231 57.8655 12.5057 57.7821 11.6718C57.7821 11.7552 57.7821 11.8386 57.7821 11.8386Z" fill="#B4DCFF"/>
<path d="M15.9183 3.91573C15.9183 4.74968 13.8334 5.58363 11.1648 5.58363C8.49616 5.58363 6.32788 4.99986 6.32788 4.16591C6.32788 3.33196 8.41276 2.49801 11.0814 2.49801C13.7501 2.41461 15.9183 2.99838 15.9183 3.91573Z" fill="#D9F1FF"/>
<path fill-rule="evenodd" clip-rule="evenodd" d="M27.5934 32.0193C27.5934 33.1868 26.5926 34.1875 25.4251 34.1875C24.2576 34.1875 23.2568 33.1868 23.2568 32.0193C23.2568 30.8517 24.2576 29.851 25.4251 29.851C26.676 29.851 27.5934 30.8517 27.5934 32.0193Z" fill="white"/>
<path fill-rule="evenodd" clip-rule="evenodd" d="M10.9981 17.9258C10.9981 18.5096 10.4977 19.0099 9.91397 19.0099C9.33021 19.0099 8.82983 18.5096 8.82983 17.9258C8.82983 17.342 9.33021 16.8417 9.91397 16.8417C10.4977 16.8417 10.9981 17.342 10.9981 17.9258Z" fill="white"/>
</svg>
