<svg width="119" height="53" viewBox="0 0 119 53" fill="none" xmlns="http://www.w3.org/2000/svg">
<path d="M115.379 37.1813C114.959 37.77 114.706 38.4428 114.454 39.2838C114.37 39.6202 114.286 39.9566 114.202 40.293C112.856 46.4323 114.033 55.7674 108.483 51.8147C101.923 47.021 108.819 30.0328 103.1 25.2391C97.4657 20.4454 93.513 27.0052 90.5695 33.565C87.5419 40.1248 80.3934 38.3587 79.8047 32.3876C79.216 26.4165 71.7311 24.314 62.4801 26.0801C53.3132 27.9303 56.8454 17.7542 51.463 17.7542C46.0806 17.7542 45.4919 32.724 35.5681 34.9947C23.6259 37.77 27.1581 26.1642 20.8506 23.2207C14.5431 20.2772 14.3749 30.6215 6.88998 33.3127C1.50757 35.247 -2.78153 22.2115 3.94647 15.9881C4.36698 15.5676 4.87158 15.2312 5.46028 14.8948C7.22638 13.8015 8.57198 13.2128 9.74938 12.7082C12.6088 11.6149 14.459 11.1944 18.9163 5.47564C25.2238 -2.59797 38.5957 2.44804 38.5957 2.44804C57.4341 10.6057 62.8165 3.96184 74.5064 5.81204C86.1122 7.57814 92.7561 2.27984 101.418 3.45724C110.081 4.55054 110.669 9.09194 115.463 15.7358C116.22 16.8291 116.809 17.9224 117.313 19.1839C119.668 25.3232 118.154 32.8922 115.379 37.1813Z" fill="white"/>
<path d="M89.8077 11.7207C89.7361 13.0796 86.3746 14.0093 82.2979 13.8663C78.2212 13.7233 74.9312 12.5074 74.9312 11.22C75.0027 9.86105 78.3642 8.93127 82.4409 9.07431C86.5892 9.21735 89.8792 10.4332 89.8077 11.7207Z" fill="#D9F1FF"/>
<path d="M115.379 37.181C112.099 42.227 115.043 56.6082 108.483 51.8144C101.923 47.0207 108.819 30.0325 103.1 25.2388C97.4656 20.4451 93.5129 27.0049 90.5694 33.5647C87.5418 40.1245 80.3933 38.3584 79.8046 32.3873C79.2159 26.4162 71.731 24.3137 62.48 26.0798C53.3131 27.93 56.8453 17.7539 51.4629 17.7539C46.0805 17.7539 45.4918 32.7237 35.568 34.9944C23.6258 37.7697 27.158 26.1639 20.8505 23.2204C14.5429 20.2769 14.3747 30.6212 6.88984 33.3124C1.17104 35.4149 -3.37036 20.361 5.46014 14.8945C7.22624 13.8012 8.57184 13.2125 9.74924 12.7079C9.58104 12.8761 2.60074 18.5949 5.54424 23.5568C8.48774 28.6869 11.8517 19.1836 16.3931 17.1652C20.9346 15.1468 28.7559 16.0719 30.0174 20.4451C31.2789 24.8183 40.1935 28.0141 42.3801 20.361C44.5667 12.7079 49.1922 10.3531 52.8926 10.9418C56.593 11.4464 62.2277 17.6698 62.9846 20.0246C63.7415 22.3794 72.9925 18.5108 78.1226 21.2861C83.2527 24.0614 81.3184 28.4346 86.5326 27.6777C91.7468 26.9208 92.3355 16.7447 102.428 17.9221C112.52 19.0154 108.651 32.3032 110.838 33.9011C113.024 35.499 120.593 30.9576 117.397 19.0154C119.668 25.3229 118.154 32.8919 115.379 37.181Z" fill="#D9F1FF"/>
<path d="M114.202 40.2924C112.856 46.4317 114.033 55.7668 108.483 51.8141C101.923 47.0204 108.819 30.0322 103.1 25.2385C97.4657 20.4448 93.513 27.0046 90.5695 33.5644C87.5419 40.1242 80.3934 38.3581 79.8047 32.387C79.216 26.4159 71.7311 24.3134 62.4801 26.0795C53.3132 27.9297 56.8454 17.7536 51.463 17.7536C46.0806 17.7536 45.4919 32.7234 35.5681 34.9941C23.6259 37.7694 27.1581 26.1636 20.8506 23.2201C14.5431 20.2766 14.3749 30.6209 6.88998 33.3121C1.50757 35.2464 -2.78153 22.2109 3.94647 15.9875C3.86237 16.1557 0.161974 21.7063 3.27367 26.8364C6.38538 32.0506 11.2632 27.2569 12.6929 23.8929C14.1226 20.5289 18.5799 17.5013 22.869 19.4356C27.2422 21.3699 27.074 30.3686 32.7087 30.7891C38.3434 31.2096 43.6417 26.1636 46.2488 19.5197C48.8559 12.8758 52.6404 13.5486 54.827 15.3988C57.0136 17.249 57.0136 24.0611 62.396 23.0519C67.7784 22.0427 76.2725 21.454 79.3001 26.3318C82.3277 31.2096 82.2436 35.8351 86.3645 33.9008C90.4854 31.9665 92.672 20.0243 101.082 21.0335C109.492 22.0427 107.726 31.7983 107.558 37.0966C107.474 42.3949 107.221 46.7681 109.744 47.8614C111.679 48.6183 113.529 42.7313 114.202 40.2924Z" fill="#B4DCFF"/>
</svg>
