<svg width="55" height="25" viewBox="0 0 55 25" fill="none" xmlns="http://www.w3.org/2000/svg">
<path d="M30.3419 0.390625C33.326 1.0279 33.7406 3.36458 36.5591 4.12931C38.9631 4.80907 42.0303 4.08683 44.6828 4.29925C46.9211 4.46919 48.8278 5.3189 49.9883 6.29605C51.1488 7.27321 51.812 8.42031 52.3923 9.56742C52.9725 10.6295 53.4699 11.7341 53.3041 12.8387C53.1384 13.9434 52.1436 15.048 50.2369 15.6003C47.833 16.28 44.7658 15.8552 42.1132 15.4728C39.3776 15.1329 36.1446 14.963 34.2379 16.0251C31.2536 17.7245 34.8182 20.7835 32.0826 22.6103C30.922 23.3751 28.7668 23.7149 26.9431 23.3326C25.2022 22.9502 24.0417 21.9731 24.2075 20.9959C24.3733 20.3586 24.9536 19.8063 25.2852 19.2115C25.6168 18.6167 25.6167 17.852 24.7048 17.4696C23.71 17.0448 22.135 17.2147 20.9744 17.5546C19.8139 17.8945 18.9021 18.4043 17.5758 18.6167C16.3323 18.8292 14.5914 18.5742 14.3427 17.8945C13.7625 17.4271 13.5967 16.6624 12.519 16.535C9.94927 16.1526 10.1151 18.8292 10.3638 20.1887C10.6954 21.5482 10.6124 23.2476 8.20844 23.8424C6.63341 24.2248 4.64389 23.7999 3.64913 23.0777C2.65438 22.3554 0.333274 20.9959 2.90306 18.7442C3.89782 17.8945 3.48334 16.8323 2.82017 15.8977C2.0741 15.0055 0.996446 14.1558 0.499067 13.2211C-0.412794 11.5642 0.66486 9.77984 1.74251 8.12292C2.40569 7.0183 3.15175 5.91369 4.3952 4.93653C5.63865 4.00186 7.62816 3.19464 9.86637 3.06718C12.6019 2.89724 15.3375 3.70446 17.9902 3.40706C20.3113 3.15215 22.0521 2.175 23.7929 1.36778" fill="#E3F2FD"/>
<path d="M23.8764 1.11487C22.1355 1.92209 20.3939 3.23712 18.0728 3.49204C15.42 3.78943 12.6845 2.98221 9.9489 3.15215C7.71069 3.27961 5.80407 4.08683 4.47773 5.0215C3.40007 5.82872 2.7369 6.80588 2.07373 7.74055C2.98559 8.50529 3.73166 9.35498 4.47773 10.2047C5.1409 10.9694 5.80407 11.7766 6.46724 12.5414C7.04752 13.1786 7.5449 13.8584 7.29621 14.4957C7.13042 15.0055 6.55014 15.4303 6.46724 15.8977C6.38435 16.4075 7.21331 17.2572 7.95938 16.9173C9.70021 16.1951 9.45152 14.7081 11.0266 13.8584C12.6016 13.0512 15.2543 12.6263 17.1609 13.2211C18.9846 13.7734 20.1451 15.1329 22.2176 14.963C24.0413 14.7931 25.5335 13.476 27.0256 13.9858C28.4349 14.4532 27.4401 16.0251 29.0979 16.1951C29.927 16.28 30.6731 15.8127 30.756 15.3879C30.9218 14.963 30.673 14.4957 30.9217 14.0708C31.2532 13.3486 32.5797 12.8387 34.0718 12.6263C35.4811 12.4139 36.9731 12.4989 38.4652 12.4989C43.439 12.5413 48.4958 12.0315 53.055 11.0119C52.8893 10.5021 52.6405 9.99226 52.3918 9.48244C51.8116 8.33534 51.2313 7.23073 49.9879 6.21108C48.8274 5.23393 46.9207 4.38422 44.6825 4.21428C41.9469 4.00186 38.9627 4.7241 36.5587 4.04434C33.7402 3.36458 33.1786 0.752748 30.3414 0.390625" fill="white"/>
<path opacity="0.5" d="M2.98651 15.9402C3.73258 16.8324 4.06416 17.937 3.0694 18.7867C0.499613 21.0384 2.82071 22.3979 3.81547 23.1202C4.81023 23.8424 6.79975 24.2673 8.37478 23.8849C10.7787 23.3326 10.8617 21.5907 10.5301 20.2312C10.1986 18.8717 10.1156 16.1951 12.6854 16.5775C13.6802 16.7049 13.8459 17.4697 14.5091 17.937C14.7578 18.6168 16.4986 18.8717 17.7421 18.6592C18.9855 18.4468 19.9802 17.937 21.1409 17.5971C22.3013 17.2572 23.8764 17.0448 24.8711 17.5121C25.783 17.8945 25.8659 18.6592 25.4515 19.254C25.1199 19.8488 24.4566 20.4011 24.3738 21.0384C24.1252 22.0156 25.2857 23.0352 27.1094 23.3751C28.8503 23.7575 31.0885 23.4176 32.249 22.6528C34.9016 20.826 31.4201 17.7671 34.4043 16.0677C36.228 15.0055 39.5438 15.1755 42.2794 15.5153C45.015 15.8552 47.9993 16.3226 50.4033 15.6428C52.31 15.0905 53.3047 13.9859 53.4705 12.8813C53.4705 12.7113 53.4705 12.5414 53.4705 12.3714C52.3929 12.5414 51.3981 12.7538 50.4033 12.9662C45.9269 13.8159 40.8702 14.7081 36.3108 14.0284C35.399 13.9009 34.4042 14.0709 33.6582 14.4957C32.9121 14.9206 32.4977 15.4304 32.166 15.9402C31.42 16.8749 30.7568 17.852 30.0107 18.7867C29.8449 19.0416 29.4304 19.339 28.9331 19.254C28.4357 19.2116 28.4357 18.8717 28.3528 18.6592C28.187 17.7671 27.1922 16.9174 25.7001 16.45C24.208 15.9827 22.3014 15.8552 20.7264 16.1526C20.0632 16.2801 19.4 16.4925 18.6539 16.62C17.9907 16.7474 17.1618 16.7899 16.4986 16.62C15.8354 16.45 15.9184 16.0252 15.9184 15.6428C15.8355 14.9206 13.6802 15.048 12.6854 15.2604C11.6906 15.5153 10.9446 15.9402 10.3643 16.4075C8.78926 17.3847 7.71161 18.4893 6.96554 19.6364C6.79975 19.8488 6.55106 20.1462 6.05368 20.1462C5.30761 20.1462 5.30761 19.5514 5.4734 19.1691C6.38526 17.3847 4.97602 15.5578 3.64968 13.8584C2.90361 12.9238 2.07465 11.9466 0.416717 11.4368C0.416717 11.4368 0.416717 11.4368 0.333821 11.4368C0.250924 12.0741 0.333821 12.6688 0.58251 13.2636C1.16279 14.1983 2.24044 15.048 2.98651 15.9402Z" fill="#BBDEFB"/>
<path d="M6.63323 9.48235C6.86214 9.48235 7.04772 9.38725 7.04772 9.26993C7.04772 9.15261 6.86214 9.0575 6.63323 9.0575C6.40432 9.0575 6.21875 9.15261 6.21875 9.26993C6.21875 9.38725 6.40432 9.48235 6.63323 9.48235Z" fill="#E3F2FD"/>
<path d="M47.0036 10.6296C47.9192 10.6296 48.6615 10.2492 48.6615 9.77994C48.6615 9.31067 47.9192 8.93024 47.0036 8.93024C46.0879 8.93024 45.3457 9.31067 45.3457 9.77994C45.3457 10.2492 46.0879 10.6296 47.0036 10.6296Z" fill="#E3F2FD"/>
</svg>
