<svg width="21" height="21" viewBox="0 0 21 21" fill="none" xmlns="http://www.w3.org/2000/svg">
<path d="M4.59563 19.6923C4.59554 19.6921 4.59536 19.6919 4.59512 19.6916M12.8684 7.06363L13.0047 7.35264L13.3206 7.40079L19.1972 8.29669C19.2443 8.30477 19.2821 8.31389 19.312 8.32277C19.2905 8.3542 19.2588 8.39428 19.2127 8.44275L14.9621 12.789L14.7498 13.006L14.799 13.3055L15.8049 19.4374C15.8071 19.4566 15.81 19.4988 15.8105 19.572C15.798 19.5655 15.7844 19.558 15.7698 19.5492L15.7606 19.5437L15.7512 19.5385L10.49 16.6389L10.2004 16.4792L9.91087 16.6389L4.65002 19.5385L4.64155 19.5433C4.61868 19.5564 4.59826 19.567 4.58023 19.5755C4.58066 19.57 4.58124 19.5632 4.58199 19.5553C4.58474 19.5265 4.58916 19.4883 4.59568 19.4399L5.60198 13.3055L5.6512 13.0055L5.4383 12.7884L1.18506 8.45139C1.14002 8.39948 1.10877 8.35676 1.08752 8.32317C1.11759 8.31413 1.15582 8.30493 1.20357 8.29669L7.08045 7.40079L7.39633 7.35264L7.53264 7.06364L10.1691 1.47368L10.1722 1.46704L10.1751 1.46032C10.1839 1.44046 10.1924 1.42257 10.2006 1.40649C10.2087 1.42252 10.2172 1.44036 10.2259 1.46015L10.229 1.46695L10.2321 1.47367L12.8684 7.06363Z" stroke="#4D5B97" stroke-width="1.19982"/>
</svg>
