<svg width="21" height="21" viewBox="0 0 21 21" fill="none" xmlns="http://www.w3.org/2000/svg">
<path d="M18.4186 12.2372C18.4186 13.8572 17.8624 15.4109 16.8724 16.5564C15.8824 17.7019 14.5395 18.3454 13.1394 18.3454" stroke="#4D5B97" stroke-width="1.19982" stroke-miterlimit="10"/>
<path d="M2.58105 7.87446C2.58105 6.95713 2.78606 6.0488 3.18432 5.20139C3.58258 4.35398 4.16629 3.58413 4.9021 2.93581C5.6379 2.28749 6.51137 1.77344 7.47257 1.42303C8.43376 1.07264 9.46383 0.892753 10.5038 0.89368C12.603 0.89368 14.6162 1.62916 16.1005 2.93832C17.5848 4.24747 18.4187 6.02304 18.4187 7.87446" stroke="#4D5B97" stroke-width="1.19982" stroke-miterlimit="10"/>
<path d="M5.63131 6.12915C5.98917 6.12915 6.33237 6.25404 6.58542 6.47635C6.83847 6.69866 6.98063 7.00017 6.98063 7.31457V12.7971C6.98063 13.1115 6.83847 13.413 6.58542 13.6353C6.33237 13.8577 5.98917 13.9825 5.63131 13.9825C5.11523 13.9825 4.6042 13.8932 4.12741 13.7197C3.65061 13.5462 3.21738 13.2919 2.85245 12.9713C2.48753 12.6507 2.19805 12.2701 2.00056 11.8512C1.80306 11.4324 1.70142 10.9834 1.70142 10.53V9.58167C1.70142 8.66604 2.11546 7.78785 2.85245 7.14037C3.58945 6.4929 4.58903 6.12915 5.63131 6.12915Z" stroke="#4D5B97" stroke-width="1.19982" stroke-miterlimit="10"/>
<path d="M15.3689 13.9827C15.0111 13.9827 14.6678 13.8577 14.4148 13.6354C14.1618 13.4132 14.0195 13.1116 14.0195 12.7972V7.31471C14.0195 7.00032 14.1618 6.69878 14.4148 6.47647C14.6678 6.25416 15.0111 6.12927 15.3689 6.12927C16.4112 6.12927 17.4108 6.49305 18.1477 7.14052C18.8847 7.78799 19.2987 8.66618 19.2987 9.58181V10.5449C19.2943 11.458 18.8783 12.3324 18.1418 12.9767C17.4053 13.621 16.4083 13.9827 15.3689 13.9827Z" stroke="#4D5B97" stroke-width="1.19982" stroke-miterlimit="10"/>
<path d="M11.8104 17.4729H10.9494C10.2153 17.4729 9.62012 18.0589 9.62012 18.7817C9.62012 19.5047 10.2153 20.0907 10.9494 20.0907H11.8104C12.5445 20.0907 13.1396 19.5047 13.1396 18.7817C13.1396 18.0589 12.5445 17.4729 11.8104 17.4729Z" stroke="#4D5B97" stroke-width="1.19982" stroke-miterlimit="10"/>
</svg>
