<svg width="21" height="21" viewBox="0 0 21 21" fill="none" xmlns="http://www.w3.org/2000/svg">
<g clip-path="url(#clip0_1_1235)">
<path d="M17.9692 12.2076C17.9692 13.8276 17.4129 15.3813 16.4229 16.5268C15.4329 17.6723 14.0901 18.3159 12.6899 18.3159" stroke="#FFC701" stroke-width="1.19982" stroke-miterlimit="10"/>
<path d="M2.13159 7.84491C2.13159 6.92759 2.3366 6.01926 2.73485 5.17185C3.13311 4.32444 3.71683 3.55459 4.45264 2.90627C5.18844 2.25795 6.06191 1.7439 7.0231 1.39349C7.9843 1.0431 9.01437 0.863212 10.0544 0.864139C12.1536 0.864139 14.1667 1.59962 15.6511 2.90878C17.1353 4.21793 17.9693 5.99349 17.9693 7.84491" stroke="#FFC701" stroke-width="1.19982" stroke-miterlimit="10"/>
<path d="M5.18173 6.09961C5.53958 6.09961 5.88279 6.2245 6.13584 6.44681C6.38888 6.66912 6.53104 6.97063 6.53104 7.28502V12.7676C6.53104 13.082 6.38888 13.3835 6.13584 13.6058C5.88279 13.8281 5.53958 13.953 5.18173 13.953C4.66564 13.953 4.15461 13.8636 3.67782 13.6901C3.20102 13.5167 2.7678 13.2624 2.40287 12.9418C2.03795 12.6212 1.74847 12.2405 1.55098 11.8217C1.35348 11.4028 1.25183 10.9538 1.25183 10.5005V9.55213C1.25183 8.6365 1.66587 7.75831 2.40287 7.11083C3.13987 6.46335 4.13945 6.09961 5.18173 6.09961Z" stroke="#FFC701" stroke-width="1.19982" stroke-miterlimit="10"/>
<path d="M14.9196 13.9531C14.5617 13.9531 14.2185 13.8282 13.9654 13.6059C13.7124 13.3836 13.5702 13.0821 13.5702 12.7677V7.28517C13.5702 6.97078 13.7124 6.66924 13.9654 6.44693C14.2185 6.22462 14.5617 6.09973 14.9196 6.09973C15.9618 6.09973 16.9614 6.46351 17.6984 7.11098C18.4354 7.75845 18.8494 8.63664 18.8494 9.55227V10.5154C18.845 11.4285 18.429 12.3029 17.6925 12.9471C16.9559 13.5914 15.959 13.9531 14.9196 13.9531Z" stroke="#FFC701" stroke-width="1.19982" stroke-miterlimit="10"/>
<path d="M11.361 17.4434H10.5C9.76597 17.4434 9.17078 18.0294 9.17078 18.7522C9.17078 19.4751 9.76597 20.0611 10.5 20.0611H11.361C12.0951 20.0611 12.6903 19.4751 12.6903 18.7522C12.6903 18.0294 12.0951 17.4434 11.361 17.4434Z" stroke="#FFC701" stroke-width="1.19982" stroke-miterlimit="10"/>
</g>
<defs>
<clipPath id="clip0_1_1235">
<rect width="20" height="20.7969" fill="white" transform="translate(0.0505371 0.064209)"/>
</clipPath>
</defs>
</svg>
