<svg width="21" height="26" viewBox="0 0 21 26" fill="none" xmlns="http://www.w3.org/2000/svg">
<path d="M20.0925 9.63425C19.5696 8.3971 18.8171 7.28109 17.8669 6.33091C16.9103 5.37435 15.8008 4.62823 14.5635 4.10531C13.6261 3.70992 12.644 3.45484 11.6301 3.34642V2.6577H12.3953C12.7014 2.6577 12.9565 2.40899 12.9565 2.09651V1.10806C12.9565 0.801959 12.7078 0.546875 12.3953 0.546875H8.62647C8.32037 0.546875 8.06528 0.795582 8.06528 1.10806V2.10289C8.06528 2.40899 8.31399 2.66407 8.62647 2.66407H9.39173V3.34642C8.38414 3.45484 7.40207 3.70992 6.45826 4.10531C5.2211 4.62823 4.10511 5.38073 3.15491 6.33091C2.20473 7.28109 1.45223 8.3971 0.929307 9.63425C0.387253 10.9161 0.113037 12.2744 0.113037 13.6774C0.113037 15.0803 0.387253 16.445 0.929307 17.7268C1.45223 18.964 2.20473 20.08 3.15491 21.0301C4.11148 21.9867 5.2211 22.7329 6.45826 23.2557C7.74644 23.8042 9.10476 24.0784 10.5077 24.0784C11.9107 24.0784 13.2754 23.8042 14.5572 23.2621C15.7943 22.7392 16.9103 21.9867 17.8605 21.0365C18.8171 20.0799 19.5632 18.9704 20.0861 17.7331C20.6282 16.4513 20.9024 15.0866 20.9024 13.6837C20.9087 12.2744 20.6346 10.9161 20.0925 9.63425ZM10.5077 22.2226C5.79503 22.2226 1.9624 18.39 1.9624 13.6774C1.9624 8.96465 5.79503 5.13202 10.5077 5.13202C15.2204 5.13202 19.053 8.96465 19.053 13.6774C19.0594 18.39 15.2204 22.2226 10.5077 22.2226Z" fill="#8C98A8"/>
</svg>
