<svg width="17" height="14" viewBox="0 0 17 14" fill="none" xmlns="http://www.w3.org/2000/svg">
<g clip-path="url(#clip0_1_1333)">
<path fill-rule="evenodd" clip-rule="evenodd" d="M15.8507 2.50937C15.2775 2.77043 14.6603 2.9469 14.0129 3.02575C14.674 2.62015 15.1813 1.9769 15.4203 1.2108C14.8013 1.58641 14.1174 1.85965 13.3866 2.00615C12.8043 1.36862 11.9719 0.970459 11.0508 0.970459C9.28445 0.970459 7.85146 2.4399 7.85146 4.25217C7.85146 4.50945 7.87889 4.75917 7.93381 4.99963C5.27403 4.8624 2.91625 3.55724 1.33663 1.56947C1.06108 2.05587 0.903491 2.62015 0.903491 3.22112C0.903491 4.35918 1.4685 5.36379 2.32736 5.95257C1.80366 5.9366 1.30909 5.7873 0.876923 5.54319V5.58353C0.876923 7.17412 1.98026 8.50084 3.44531 8.8014C3.17706 8.87842 2.89407 8.9169 2.60193 8.9169C2.39597 8.9169 2.19451 8.89721 1.99938 8.85866C2.40681 10.162 3.58802 11.1113 4.98897 11.1367C3.8938 12.0174 2.51309 12.5422 1.01415 12.5422C0.755902 12.5422 0.500453 12.5272 0.250488 12.4971C1.66703 13.4267 3.35 13.9703 5.15655 13.9703C11.0442 13.9703 14.2627 8.97033 14.2627 4.63327C14.2627 4.49056 14.2599 4.34785 14.2543 4.20793C14.88 3.74506 15.423 3.16761 15.8507 2.50937Z" fill="#3B436B"/>
</g>
<defs>
<clipPath id="clip0_1_1333">
<rect width="16" height="13" fill="white" transform="translate(0.0505371 0.970459)"/>
</clipPath>
</defs>
</svg>
