<svg width="33" height="33" viewBox="0 0 33 33" fill="none" xmlns="http://www.w3.org/2000/svg">
<path d="M12.8271 20.1932L14.4401 18.5803" stroke="#3B436B" stroke-width="1.41176" stroke-linecap="round" stroke-linejoin="round"/>
<path d="M18.8694 14.1514L20.2731 12.7477" stroke="#3B436B" stroke-width="1.41176" stroke-linecap="round" stroke-linejoin="round"/>
<path d="M12.8271 12.7477L14.2309 14.1514" stroke="#3B436B" stroke-width="1.41176" stroke-linecap="round" stroke-linejoin="round"/>
<path d="M18.8694 18.7895L20.2731 20.1932" stroke="#3B436B" stroke-width="1.41176" stroke-linecap="round" stroke-linejoin="round"/>
<path d="M24.5366 24.4566C28.9472 20.046 28.9472 12.8949 24.5366 8.4843C20.1259 4.07367 12.975 4.07367 8.56432 8.4843C4.15369 12.8949 4.15369 20.046 8.56432 24.4566C12.975 28.8672 20.1259 28.8672 24.5366 24.4566Z" stroke="#4D5B97" stroke-width="1.41176" stroke-linecap="round" stroke-linejoin="round"/>
<path d="M24.5366 24.4566C28.9472 20.046 28.9472 12.8949 24.5366 8.4843C20.1259 4.07367 12.975 4.07367 8.56432 8.4843C4.15369 12.8949 4.15369 20.046 8.56432 24.4566C12.975 28.8672 20.1259 28.8672 24.5366 24.4566Z" stroke="#3B436B" stroke-width="1.41176" stroke-linecap="round" stroke-linejoin="round" stroke-dasharray="4.71 4.71"/>
<path d="M18.6605 18.5803C19.8258 17.4151 19.8258 15.5258 18.6605 14.3606C17.4954 13.1954 15.606 13.1954 14.4408 14.3606C13.2756 15.5258 13.2756 17.4151 14.4408 18.5803C15.606 19.7456 17.4954 19.7456 18.6605 18.5803Z" stroke="#2D3660" stroke-width="1.41176" stroke-linecap="round" stroke-linejoin="round"/>
<path d="M12.6359 12.5558C13.2137 11.978 13.2137 11.0412 12.6359 10.4634C12.0582 9.88558 11.1213 9.88558 10.5435 10.4634C9.96564 11.0412 9.96564 11.978 10.5435 12.5558C11.1213 13.1337 12.0582 13.1337 12.6359 12.5558Z" stroke="#3B436B" stroke-width="1.41176" stroke-linecap="round" stroke-linejoin="round"/>
<path d="M22.5578 22.4775C23.1356 21.8997 23.1356 20.9629 22.5578 20.3851C21.98 19.8072 21.0432 19.8072 20.4654 20.3851C19.8875 20.9629 19.8875 21.8997 20.4654 22.4775C21.0432 23.0553 21.98 23.0553 22.5578 22.4775Z" stroke="#3B436B" stroke-width="1.41176" stroke-linecap="round" stroke-linejoin="round"/>
<path d="M22.5578 12.5557C23.1356 11.9779 23.1356 11.0411 22.5578 10.4633C21.98 9.88552 21.0432 9.88552 20.4654 10.4633C19.8875 11.0411 19.8875 11.9779 20.4654 12.5557C21.0432 13.1335 21.98 13.1335 22.5578 12.5557Z" stroke="#3B436B" stroke-width="1.41176" stroke-linecap="round" stroke-linejoin="round"/>
<path d="M12.6359 22.4775C13.2137 21.8997 13.2137 20.9629 12.6359 20.3851C12.0582 19.8072 11.1213 19.8072 10.5435 20.3851C9.96564 20.9629 9.96564 21.8997 10.5435 22.4775C11.1213 23.0553 12.0582 23.0553 12.6359 22.4775Z" stroke="#3B436B" stroke-width="1.41176" stroke-linecap="round" stroke-linejoin="round"/>
</svg>
